<?xml version="1.0" encoding="UTF-8"?>
<svg width="25px" height="18px" viewBox="0 0 25 18" version="1.1" xmlns="http://www.w3.org/2000/svg" xmlns:xlink="http://www.w3.org/1999/xlink">
    <!-- Generator: Sketch 58 (84663) - https://sketch.com -->
    <title>right-arrow</title>
    <desc>Created with Sketch.</desc>
    <g id="Site" stroke="none" stroke-width="1" fill="none" fill-rule="evenodd">
        <g id="Main-Page" transform="translate(-1488.000000, -3136.000000)" fill="#BC68AA">
            <g id="Doctors" transform="translate(372.000000, 2583.000000)">
                <g id="Button" transform="translate(613.000000, 544.000000)">
                    <g id="right-arrow-2-copy" transform="translate(503.000000, 9.000000)">
                        <g id="right-arrow">
                            <path d="M13.4866608,17.9798731 C13.1536413,17.9803596 13.0436543,17.8303938 12.8825789,17.5077931 C12.7215036,17.1851924 12.8863177,16.6105296 13,16.5215936 L22.4284056,8.99780584 L12.8825789,1.57703174 C12.6512008,1.38918445 12.6430604,0.456909054 12.8825789,0.275446 C13.1162749,0.0984607786 13.678694,-0.0285073892 13.9123333,0.148477833 L24.7661345,8.6607931 C25.0015263,8.84544828 25.0015263,9.14479803 24.7661345,9.32949754 L13.9123333,17.8418128 C13.799386,17.9302167 13.6463021,17.9798731 13.4866608,17.9798731 Z" id="Path"></path>
                            <path d="M23.340462,10.0725273 L1.37218087,10.0725273 C1.03916138,10.0725273 0.769173076,9.72561048 0.769173076,9.28598162 C0.769173076,8.84635276 1.03916138,8.30754062 1.37218087,8.30754062 L23.3405185,8.30754062 C23.673538,8.30754062 23.9435263,8.84635276 23.9435263,9.28598162 C23.9435263,9.72561048 23.6734815,10.0725273 23.340462,10.0725273 Z" id="Path"></path>
                        </g>
                    </g>
                </g>
            </g>
        </g>
    </g>
</svg>