<?xml version="1.0" encoding="UTF-8"?>
<svg width="19px" height="19px" viewBox="0 0 19 19" version="1.1" xmlns="http://www.w3.org/2000/svg" xmlns:xlink="http://www.w3.org/1999/xlink">

    <g id="Site" stroke="none" stroke-width="1" fill="none" fill-rule="evenodd">
        <g id="calendar-icon" transform="translate(-1349.000000, -29.000000)" fill="#BC68AA">
            <g id="calendar-2" transform="translate(1349.000000, 29.000000)">
                <g id="calendar">
                    <path d="M17.3804969,1.26702292 L16.7484802,1.26702292 L16.7484802,0.317022917 C16.7484802,0.14214375 16.6069875,0.00035625 16.4324719,0.00035625 C16.2579563,0.00035625 16.1164636,0.14214375 16.1164636,0.317022917 L16.1164636,1.26702292 L13.5883971,1.26702292 L13.5883971,0.317022917 C13.5883971,0.14214375 13.4469044,0.00035625 13.2723888,0.00035625 C13.0978732,0.00035625 12.9563805,0.14214375 12.9563805,0.317022917 L12.9563805,1.26702292 L10.4283139,1.26702292 L10.4283139,0.317022917 C10.4283139,0.14214375 10.2868212,0.00035625 10.1123056,0.00035625 C9.93779002,0.00035625 9.7962973,0.14214375 9.7962973,0.317022917 L9.7962973,1.26702292 L7.26823077,1.26702292 L7.26823077,0.317022917 C7.26823077,0.14214375 7.12673805,0.00035625 6.95222245,0.00035625 C6.77770686,0.00035625 6.63621414,0.14214375 6.63621414,0.317022917 L6.63621414,1.26702292 L4.10814761,1.26702292 L4.10814761,0.317022917 C4.10814761,0.14214375 3.96665489,0.00035625 3.79213929,0.00035625 C3.6176237,0.00035625 3.47613098,0.14214375 3.47613098,0.317022917 L3.47613098,1.26702292 L2.84411435,1.26702292 C1.97193139,1.26805208 1.26509979,1.97635625 1.26407277,2.85035625 L1.26407277,10.5940833 C-0.451733888,12.5369521 -0.41685447,15.4672271 1.34465489,17.3685333 C1.43234719,17.4668187 1.52541164,17.5601562 1.62337422,17.64815 L1.6262183,17.651 L1.62811435,17.651 C3.52499376,19.4170896 6.44949272,19.4528333 8.38879626,17.73365 L17.3804969,17.73365 C18.2526798,17.7326208 18.9595114,17.0243167 18.9605385,16.1503167 L18.9605385,2.85031667 C18.9594719,1.97631667 18.2526798,1.26805208 17.3804969,1.26702292 Z M8.07638254,17.1853812 C6.37534927,18.7624208 3.74924116,18.7606792 2.05026195,17.1813833 C1.96624324,17.1057792 1.88637214,17.0256625 1.81104366,16.94135 C0.1482079,15.1402687 0.257230769,12.3293375 2.05456757,10.6629979 C3.85190437,8.99665833 6.65703119,9.10590833 8.31990644,10.9070292 C9.9827817,12.7081104 9.87375884,15.5190417 8.07638254,17.1853812 Z M18.3285218,16.1503562 C18.3285218,16.6750333 17.9040832,17.1003562 17.3804969,17.1003562 L8.99995634,17.1003562 C9.03850936,17.0525396 9.07232225,17.0015562 9.1086632,16.9524729 C9.14500416,16.9033896 9.17628898,16.8631729 9.20820582,16.8169396 C9.27867568,16.7152896 9.34440541,16.6104729 9.40697505,16.5037562 C9.42530353,16.4720896 9.44584407,16.4432729 9.46322453,16.4119229 C9.54116008,16.273025 9.61226195,16.1306042 9.67653015,15.9847396 C9.69296258,15.9476896 9.70623493,15.9093729 9.72171933,15.8720062 C9.76754054,15.7618062 9.81051767,15.6503396 9.84812266,15.5372896 C9.86613514,15.4840896 9.88161954,15.4302562 9.89741996,15.3764229 C9.92902079,15.2747729 9.95524948,15.1721729 9.9789501,15.0686229 C9.99190644,15.0119396 10.0045468,14.9555729 10.0159231,14.8982562 C10.0367796,14.7899562 10.0535281,14.6803896 10.0674324,14.5701896 C10.0737526,14.5195229 10.0819688,14.4691729 10.0870249,14.4181896 C10.1025094,14.2576396 10.1123056,14.0961396 10.1123056,13.9336896 C10.1089875,11.1368104 7.84723701,8.87034792 5.05617256,8.86702292 C4.89406029,8.86702292 4.73289605,8.87683958 4.57267983,8.89235625 C4.52180249,8.89742292 4.47155717,8.90565625 4.42067983,8.91198958 C4.31102495,8.92623958 4.20200208,8.94365625 4.09361123,8.96360625 C4.03641372,8.97500625 3.97984823,8.98767292 3.92328274,9.00065625 C3.82026403,9.024525 3.71839085,9.05163958 3.6177027,9.08203958 C3.56334927,9.09818958 3.50899584,9.11370625 3.45527443,9.13175625 C3.34435551,9.16912292 3.23406861,9.21155625 3.1272578,9.25620625 C3.08744075,9.27267292 3.04730769,9.28787292 3.00812266,9.30402292 C2.86402287,9.36735625 2.72371518,9.43860625 2.58530353,9.51618958 C2.55022661,9.53582292 2.51704574,9.55862292 2.48228482,9.57952292 C2.38021414,9.64032292 2.27972349,9.70333958 2.18176091,9.76952292 C2.13341164,9.80308958 2.08695842,9.83918958 2.03955717,9.87433958 C1.99215593,9.90948958 1.94254262,9.94368958 1.8960894,9.98168958 L1.8960894,5.06702292 L18.3285218,5.06702292 L18.3285218,16.1503562 Z M18.3285218,4.43368958 L1.8960894,4.43368958 L1.8960894,2.85035625 C1.8960894,2.32567917 2.32052807,1.90035625 2.84411435,1.90035625 L3.47613098,1.90035625 L3.47613098,2.85035625 C3.47613098,3.02523542 3.6176237,3.16702292 3.79213929,3.16702292 C3.96665489,3.16702292 4.10814761,3.02523542 4.10814761,2.85035625 L4.10814761,1.90035625 L6.63621414,1.90035625 L6.63621414,2.85035625 C6.63621414,3.02523542 6.77770686,3.16702292 6.95222245,3.16702292 C7.12673805,3.16702292 7.26823077,3.02523542 7.26823077,2.85035625 L7.26823077,1.90035625 L9.7962973,1.90035625 L9.7962973,2.85035625 C9.7962973,3.02523542 9.93779002,3.16702292 10.1123056,3.16702292 C10.2868212,3.16702292 10.4283139,3.02523542 10.4283139,2.85035625 L10.4283139,1.90035625 L12.9563805,1.90035625 L12.9563805,2.85035625 C12.9563805,3.02523542 13.0978732,3.16702292 13.2723888,3.16702292 C13.4469044,3.16702292 13.5883971,3.02523542 13.5883971,2.85035625 L13.5883971,1.90035625 L16.1164636,1.90035625 L16.1164636,2.85035625 C16.1164636,3.02523542 16.2579563,3.16702292 16.4324719,3.16702292 C16.6069875,3.16702292 16.7484802,3.02523542 16.7484802,2.85035625 L16.7484802,1.90035625 L17.3804969,1.90035625 C17.9040832,1.90035625 18.3285218,2.32567917 18.3285218,2.85035625 L18.3285218,4.43368958 Z" id="Shape" fill-rule="nonzero"></path>
                    <path d="M5.05617256,10.4503563 C4.88165696,10.4503563 4.74016424,10.5921437 4.74016424,10.7670229 L4.74016424,13.6170229 L3.16012266,13.6170229 C2.98560707,13.6170229 2.84411435,13.7588104 2.84411435,13.9336896 C2.84411435,14.1085687 2.98560707,14.2503562 3.16012266,14.2503562 L5.05617256,14.2503562 C5.23068815,14.2503562 5.37218087,14.1085687 5.37218087,13.9336896 L5.37218087,10.7670229 C5.37218087,10.5921042 5.23068815,10.4503563 5.05617256,10.4503563 Z" id="Path"></path>
                </g>
            </g>
        </g>
    </g>
</svg>