<?xml version="1.0" encoding="UTF-8"?>
<svg width="25px" height="23px" viewBox="0 0 25 23" version="1.1" xmlns="http://www.w3.org/2000/svg" xmlns:xlink="http://www.w3.org/1999/xlink">
    <!-- Generator: Sketch 58 (84663) - https://sketch.com -->
    <title>dentist 2</title>
    <desc>Created with Sketch.</desc>
    <g id="Site" stroke="none" stroke-width="1" fill="none" fill-rule="evenodd">
        <g id="Main-Page" transform="translate(-1322.000000, -110.000000)" fill="#FFFFFF" fill-rule="nonzero">
            <g id="Header" transform="translate(-24.000000, -72.000000)">
                <g id="Group-18" transform="translate(351.000000, 0.000000)">
                    <g id="Group-5">
                        <g id="left-arrow-2-copy" transform="translate(1041.500000, 193.000000) rotate(-90.000000) translate(-1041.500000, -193.000000) translate(1014.500000, 42.500000)">
                            <g id="left-arrow">
                                <g id="Group-3">
                                    <g id="dentist-2" transform="translate(26.555406, 116.494915) rotate(-270.000000) translate(-26.555406, -116.494915) translate(14.555406, 104.994915)">
                                        <g id="dentist">
                                            <path d="M3.63309091,6.11354839 L2.17854545,6.11354839 C1.97745455,6.11354839 1.81490909,6.27937097 1.81490909,6.48451613 L1.81490909,7.9683871 C1.81490909,8.17353226 1.97745455,8.33935484 2.17854545,8.33935484 L3.63309091,8.33935484 C3.83418182,8.33935484 3.99672727,8.17353226 3.99672727,7.9683871 L3.99672727,6.48451613 C3.99672727,6.27974194 3.83418182,6.11354839 3.63309091,6.11354839 Z M3.26945455,7.59741935 L2.54218182,7.59741935 L2.54218182,6.85548387 L3.26945455,6.85548387 L3.26945455,7.59741935 Z" id="Shape"></path>
                                            <path d="M6.90581818,6.11354839 L5.45127273,6.11354839 C5.25018182,6.11354839 5.08763636,6.27937097 5.08763636,6.48451613 L5.08763636,7.9683871 C5.08763636,8.17353226 5.25018182,8.33935484 5.45127273,8.33935484 L6.90581818,8.33935484 C7.10690909,8.33935484 7.26945455,8.17353226 7.26945455,7.9683871 L7.26945455,6.48451613 C7.26945455,6.27974194 7.10690909,6.11354839 6.90581818,6.11354839 Z M6.54218182,7.59741935 L5.81490909,7.59741935 L5.81490909,6.85548387 L6.54218182,6.85548387 L6.54218182,7.59741935 Z" id="Shape"></path>
                                            <path d="M10.1785455,6.11354839 L8.724,6.11354839 C8.52290909,6.11354839 8.36036364,6.27937097 8.36036364,6.48451613 L8.36036364,7.9683871 C8.36036364,8.17353226 8.52290909,8.33935484 8.724,8.33935484 L10.1785455,8.33935484 C10.3796364,8.33935484 10.5421818,8.17353226 10.5421818,7.9683871 L10.5421818,6.48451613 C10.5421818,6.27974194 10.3796364,6.11354839 10.1785455,6.11354839 Z M9.81490909,7.59741935 L9.08763636,7.59741935 L9.08763636,6.85548387 L9.81490909,6.85548387 L9.81490909,7.59741935 Z" id="Shape"></path>
                                            <path d="M13.4512727,6.11354839 L11.9967273,6.11354839 C11.7956364,6.11354839 11.6330909,6.27937097 11.6330909,6.48451613 L11.6330909,7.9683871 C11.6330909,8.17353226 11.7956364,8.33935484 11.9967273,8.33935484 L13.4512727,8.33935484 C13.6523636,8.33935484 13.8149091,8.17353226 13.8149091,7.9683871 L13.8149091,6.48451613 C13.8149091,6.27974194 13.6523636,6.11354839 13.4512727,6.11354839 Z M13.0876364,7.59741935 L12.3603636,7.59741935 L12.3603636,6.85548387 L13.0876364,6.85548387 L13.0876364,7.59741935 Z" id="Shape"></path>
                                            <path d="M3.63309091,9.08129032 L2.17854545,9.08129032 C1.97745455,9.08129032 1.81490909,9.2471129 1.81490909,9.45225806 L1.81490909,10.936129 C1.81490909,11.1412742 1.97745455,11.3070968 2.17854545,11.3070968 L3.63309091,11.3070968 C3.83418182,11.3070968 3.99672727,11.1412742 3.99672727,10.936129 L3.99672727,9.45225806 C3.99672727,9.24748387 3.83418182,9.08129032 3.63309091,9.08129032 Z M3.26945455,10.5651613 L2.54218182,10.5651613 L2.54218182,9.82322581 L3.26945455,9.82322581 L3.26945455,10.5651613 Z" id="Shape"></path>
                                            <path d="M6.90581818,9.08129032 L5.45127273,9.08129032 C5.25018182,9.08129032 5.08763636,9.2471129 5.08763636,9.45225806 L5.08763636,10.936129 C5.08763636,11.1412742 5.25018182,11.3070968 5.45127273,11.3070968 L6.90581818,11.3070968 C7.10690909,11.3070968 7.26945455,11.1412742 7.26945455,10.936129 L7.26945455,9.45225806 C7.26945455,9.24748387 7.10690909,9.08129032 6.90581818,9.08129032 Z M6.54218182,10.5651613 L5.81490909,10.5651613 L5.81490909,9.82322581 L6.54218182,9.82322581 L6.54218182,10.5651613 Z" id="Shape"></path>
                                            <path d="M10.1785455,9.08129032 L8.724,9.08129032 C8.52290909,9.08129032 8.36036364,9.2471129 8.36036364,9.45225806 L8.36036364,10.936129 C8.36036364,11.1412742 8.52290909,11.3070968 8.724,11.3070968 L10.1785455,11.3070968 C10.3796364,11.3070968 10.5421818,11.1412742 10.5421818,10.936129 L10.5421818,9.45225806 C10.5421818,9.24748387 10.3796364,9.08129032 10.1785455,9.08129032 Z M9.81490909,10.5651613 L9.08763636,10.5651613 L9.08763636,9.82322581 L9.81490909,9.82322581 L9.81490909,10.5651613 Z" id="Shape"></path>
                                            <path d="M3.63309091,12.0490323 L2.17854545,12.0490323 C1.97745455,12.0490323 1.81490909,12.2148548 1.81490909,12.42 L1.81490909,13.903871 C1.81490909,14.1090161 1.97745455,14.2748387 2.17854545,14.2748387 L3.63309091,14.2748387 C3.83418182,14.2748387 3.99672727,14.1090161 3.99672727,13.903871 L3.99672727,12.42 C3.99672727,12.2152258 3.83418182,12.0490323 3.63309091,12.0490323 Z M3.26945455,13.5329032 L2.54218182,13.5329032 L2.54218182,12.7909677 L3.26945455,12.7909677 L3.26945455,13.5329032 Z" id="Shape"></path>
                                            <path d="M6.90581818,12.0490323 L5.45127273,12.0490323 C5.25018182,12.0490323 5.08763636,12.2148548 5.08763636,12.42 L5.08763636,13.903871 C5.08763636,14.1090161 5.25018182,14.2748387 5.45127273,14.2748387 L6.90581818,14.2748387 C7.10690909,14.2748387 7.26945455,14.1090161 7.26945455,13.903871 L7.26945455,12.42 C7.26945455,12.2152258 7.10690909,12.0490323 6.90581818,12.0490323 Z M6.54218182,13.5329032 L5.81490909,13.5329032 L5.81490909,12.7909677 L6.54218182,12.7909677 L6.54218182,13.5329032 Z" id="Shape"></path>
                                            <path d="M10.1785455,12.0490323 L8.724,12.0490323 C8.52290909,12.0490323 8.36036364,12.2148548 8.36036364,12.42 L8.36036364,13.903871 C8.36036364,14.1090161 8.52290909,14.2748387 8.724,14.2748387 L10.1785455,14.2748387 C10.3796364,14.2748387 10.5421818,14.1090161 10.5421818,13.903871 L10.5421818,12.42 C10.5421818,12.2152258 10.3796364,12.0490323 10.1785455,12.0490323 Z M9.81490909,13.5329032 L9.08763636,13.5329032 L9.08763636,12.7909677 L9.81490909,12.7909677 L9.81490909,13.5329032 Z" id="Shape"></path>
                                            <path d="M3.63309091,15.0167742 L2.17854545,15.0167742 C1.97745455,15.0167742 1.81490909,15.1825968 1.81490909,15.3877419 L1.81490909,16.8716129 C1.81490909,17.0767581 1.97745455,17.2425806 2.17854545,17.2425806 L3.63309091,17.2425806 C3.83418182,17.2425806 3.99672727,17.0767581 3.99672727,16.8716129 L3.99672727,15.3877419 C3.99672727,15.1829677 3.83418182,15.0167742 3.63309091,15.0167742 Z M3.26945455,16.5006452 L2.54218182,16.5006452 L2.54218182,15.7587097 L3.26945455,15.7587097 L3.26945455,16.5006452 Z" id="Shape"></path>
                                            <path d="M6.90581818,15.0167742 L5.45127273,15.0167742 C5.25018182,15.0167742 5.08763636,15.1825968 5.08763636,15.3877419 L5.08763636,16.8716129 C5.08763636,17.0767581 5.25018182,17.2425806 5.45127273,17.2425806 L6.90581818,17.2425806 C7.10690909,17.2425806 7.26945455,17.0767581 7.26945455,16.8716129 L7.26945455,15.3877419 C7.26945455,15.1829677 7.10690909,15.0167742 6.90581818,15.0167742 Z M6.54218182,16.5006452 L5.81490909,16.5006452 L5.81490909,15.7587097 L6.54218182,15.7587097 L6.54218182,16.5006452 Z" id="Shape"></path>
                                            <path d="M10.1785455,15.0167742 L8.724,15.0167742 C8.52290909,15.0167742 8.36036364,15.1825968 8.36036364,15.3877419 L8.36036364,16.8716129 C8.36036364,17.0767581 8.52290909,17.2425806 8.724,17.2425806 L10.1785455,17.2425806 C10.3796364,17.2425806 10.5421818,17.0767581 10.5421818,16.8716129 L10.5421818,15.3877419 C10.5421818,15.1829677 10.3796364,15.0167742 10.1785455,15.0167742 Z M9.81490909,16.5006452 L9.08763636,16.5006452 L9.08763636,15.7587097 L9.81490909,15.7587097 L9.81490909,16.5006452 Z" id="Shape"></path>
                                            <path d="M13.4512727,9.08129032 L11.9967273,9.08129032 C11.7956364,9.08129032 11.6330909,9.2471129 11.6330909,9.45225806 L11.6330909,10.936129 C11.6330909,11.1412742 11.7956364,11.3070968 11.9967273,11.3070968 L13.4512727,11.3070968 C13.6523636,11.3070968 13.8149091,11.1412742 13.8149091,10.936129 L13.8149091,9.45225806 C13.8149091,9.24748387 13.6523636,9.08129032 13.4512727,9.08129032 Z M13.0876364,10.5651613 L12.3603636,10.5651613 L12.3603636,9.82322581 L13.0876364,9.82322581 L13.0876364,10.5651613 Z" id="Shape"></path>
                                            <path d="M15.2694545,11.3070968 L16.724,11.3070968 C16.9250909,11.3070968 17.0876364,11.1412742 17.0876364,10.936129 L17.0876364,9.45225806 C17.0876364,9.2471129 16.9250909,9.08129032 16.724,9.08129032 L15.2694545,9.08129032 C15.0683636,9.08129032 14.9058182,9.2471129 14.9058182,9.45225806 L14.9058182,10.936129 C14.9058182,11.1412742 15.0683636,11.3070968 15.2694545,11.3070968 Z M15.6330909,9.82322581 L16.3603636,9.82322581 L16.3603636,10.5651613 L15.6330909,10.5651613 L15.6330909,9.82322581 Z" id="Shape"></path>
                                            <path d="M15.2694545,8.33935484 L16.724,8.33935484 C16.9250909,8.33935484 17.0876364,8.17353226 17.0876364,7.9683871 L17.0876364,6.48451613 C17.0876364,6.27937097 16.9250909,6.11354839 16.724,6.11354839 L15.2694545,6.11354839 C15.0683636,6.11354839 14.9058182,6.27937097 14.9058182,6.48451613 L14.9058182,7.9683871 C14.9058182,8.17353226 15.0683636,8.33935484 15.2694545,8.33935484 Z M15.6330909,6.85548387 L16.3603636,6.85548387 L16.3603636,7.59741935 L15.6330909,7.59741935 L15.6330909,6.85548387 Z" id="Shape"></path>
                                            <path d="M18.5483636,11.6988387 L18.5421818,2.77446774 C18.5418182,2.16125806 18.0523636,1.66230645 17.4512727,1.66230645 L16.3603636,1.66230645 L16.3603636,1.10585484 C16.3603636,0.594290323 15.9527273,0.178435484 15.4512727,0.178435484 C14.9498182,0.178435484 14.5421818,0.594290323 14.5421818,1.10585484 L14.5421818,1.66230645 L12.3603636,1.66230645 L12.3603636,1.10585484 C12.3603636,0.594290323 11.9527273,0.178435484 11.4512727,0.178435484 C10.9498182,0.178435484 10.5421818,0.594290323 10.5421818,1.10585484 L10.5421818,1.66230645 L8.36036364,1.66230645 L8.36036364,1.10585484 C8.36036364,0.594290323 7.95272727,0.178435484 7.45127273,0.178435484 C6.94981818,0.178435484 6.54218182,0.594290323 6.54218182,1.10585484 L6.54218182,1.66230645 L4.36036364,1.66230645 L4.36036364,1.10585484 C4.36036364,0.594290323 3.95272727,0.178435484 3.45127273,0.178435484 C2.94981818,0.178435484 2.54218182,0.594290323 2.54218182,1.10585484 L2.54218182,1.66230645 L1.45127273,1.66230645 C0.849818182,1.66230645 0.360363636,2.16162903 0.360363636,2.77520968 L0.360363636,20.5939032 C0.360363636,20.7990484 0.522909091,20.964871 0.724,20.964871 L14.1141818,20.9581935 C15.1149091,22.0985484 16.5636364,22.8215645 18.1785455,22.8215645 C21.1894545,22.8215645 23.6396364,20.3223548 23.6396364,17.250371 C23.6396364,14.306 21.3869091,11.8943387 18.5483636,11.6988387 Z M1.08763636,18.7264516 L12.9181818,18.7264516 C12.9527273,18.8540645 12.9916364,18.9794516 13.0345455,19.1033548 L1.08763636,19.1040968 L1.08763636,18.7264516 Z M12.7730909,16.5006452 L12.3669091,16.5006452 L12.3669091,15.7587097 L12.9225455,15.7587097 C12.8563636,16.0002097 12.8069091,16.2476452 12.7730909,16.5006452 Z M13.4578182,12.0490323 L12.0032727,12.0490323 C11.8021818,12.0490323 11.6396364,12.2148548 11.6396364,12.42 L11.6396364,13.903871 C11.6396364,14.1090161 11.8021818,14.2748387 12.0032727,14.2748387 L13.4578182,14.2748387 C13.5032727,14.2748387 13.5458182,14.2640806 13.5858182,14.2485 C13.432,14.4925968 13.2952727,14.7489355 13.1796364,15.0167742 L12.0036364,15.0167742 C11.8025455,15.0167742 11.64,15.1825968 11.64,15.3877419 L11.64,16.8716129 C11.64,17.0767581 11.8025455,17.2425806 12.0036364,17.2425806 L12.7185455,17.2425806 C12.7185455,17.2451774 12.7181818,17.2481452 12.7181818,17.250371 C12.7181818,17.4996613 12.74,17.7433871 12.7712727,17.9845161 L1.08763636,17.9845161 L1.08763636,5.3716129 L17.8167273,5.3716129 L17.8210909,11.6980968 C16.1876364,11.8067903 14.7509091,12.6492581 13.8207273,13.9075806 C13.8207273,13.9064677 13.8214545,13.9053548 13.8214545,13.903871 L13.8214545,12.42 C13.8214545,12.2152258 13.6589091,12.0490323 13.4578182,12.0490323 L13.4578182,12.0490323 Z M13.0941818,12.7909677 L13.0941818,13.5329032 L12.3669091,13.5329032 L12.3669091,12.7909677 L13.0941818,12.7909677 Z M15.2694545,1.10548387 C15.2694545,1.00346774 15.3512727,0.92 15.4512727,0.92 C15.5512727,0.92 15.6330909,1.00346774 15.6330909,1.10548387 L15.6330909,2.96032258 C15.6330909,3.06233871 15.5512727,3.14580645 15.4512727,3.14580645 C15.3512727,3.14580645 15.2694545,3.06233871 15.2694545,2.96032258 L15.2694545,1.10548387 Z M11.2694545,1.10548387 C11.2694545,1.00346774 11.3512727,0.92 11.4512727,0.92 C11.5512727,0.92 11.6330909,1.00346774 11.6330909,1.10548387 L11.6330909,2.96032258 C11.6330909,3.06233871 11.5512727,3.14580645 11.4512727,3.14580645 C11.3512727,3.14580645 11.2694545,3.06233871 11.2694545,2.96032258 L11.2694545,1.10548387 Z M7.26945455,1.10548387 C7.26945455,1.00346774 7.35127273,0.92 7.45127273,0.92 C7.55127273,0.92 7.63309091,1.00346774 7.63309091,1.10548387 L7.63309091,2.96032258 C7.63309091,3.06233871 7.55127273,3.14580645 7.45127273,3.14580645 C7.35127273,3.14580645 7.26945455,3.06233871 7.26945455,2.96032258 L7.26945455,1.10548387 Z M3.26945455,1.10548387 C3.26945455,1.00346774 3.35127273,0.92 3.45127273,0.92 C3.55127273,0.92 3.63309091,1.00346774 3.63309091,1.10548387 L3.63309091,2.96032258 C3.63309091,3.06233871 3.55127273,3.14580645 3.45127273,3.14580645 C3.35127273,3.14580645 3.26945455,3.06233871 3.26945455,2.96032258 L3.26945455,1.10548387 Z M1.45127273,2.40387097 L2.54218182,2.40387097 L2.54218182,2.96032258 C2.54218182,3.4718871 2.94981818,3.88774194 3.45127273,3.88774194 C3.95272727,3.88774194 4.36036364,3.4718871 4.36036364,2.96032258 L4.36036364,2.40387097 L6.54218182,2.40387097 L6.54218182,2.96032258 C6.54218182,3.4718871 6.94981818,3.88774194 7.45127273,3.88774194 C7.95272727,3.88774194 8.36036364,3.4718871 8.36036364,2.96032258 L8.36036364,2.40387097 L10.5421818,2.40387097 L10.5421818,2.96032258 C10.5421818,3.4718871 10.9498182,3.88774194 11.4512727,3.88774194 C11.9527273,3.88774194 12.3603636,3.4718871 12.3603636,2.96032258 L12.3603636,2.40387097 L14.5421818,2.40387097 L14.5421818,2.96032258 C14.5421818,3.4718871 14.9498182,3.88774194 15.4512727,3.88774194 C15.9527273,3.88774194 16.3603636,3.4718871 16.3603636,2.96032258 L16.3603636,2.40387097 L17.4512727,2.40387097 C17.652,2.40387097 17.8149091,2.57006452 17.8149091,2.77483871 L17.8149091,2.77520968 L17.8163636,4.62967742 L1.08763636,4.62967742 L1.08763636,2.77483871 C1.08763636,2.57043548 1.25054545,2.40387097 1.45127273,2.40387097 Z M1.08763636,20.2229355 L1.08763636,19.8460323 L13.3501818,19.8452903 C13.4163636,19.9729032 13.4890909,20.0953226 13.5643636,20.216629 L1.08763636,20.2229355 Z M18.1785455,22.08 C15.5683636,22.08 13.4447273,19.9135484 13.4447273,17.2507419 C13.4447273,14.5879355 15.5683636,12.4214839 18.1785455,12.4214839 C20.7887273,12.4214839 22.9123636,14.5879355 22.9123636,17.2507419 C22.9123636,19.9135484 20.7887273,22.08 18.1785455,22.08 Z" id="Shape"></path>
                                            <path d="M19.2829091,13.9027581 C18.8978182,13.9027581 18.5247273,14.007371 18.1909091,14.2076935 C17.8570909,14.007371 17.484,13.9027581 17.0989091,13.9027581 C15.8956364,13.9027581 14.9170909,14.9006613 14.9170909,16.1278226 C14.9170909,16.7796129 15.1901818,17.3798387 15.6672727,17.8031129 L16.0116364,20.2611452 C16.0141818,20.2796935 16.0232727,20.2949032 16.0283636,20.3123387 C16.0341818,20.332371 16.0385455,20.3516613 16.0476364,20.3702097 C16.0589091,20.3935806 16.0738182,20.4132419 16.0890909,20.4332742 C16.1014545,20.4492258 16.112,20.4662903 16.1265455,20.4800161 C16.1450909,20.4974516 16.1665455,20.5093226 16.1883636,20.5223065 C16.2054545,20.5326935 16.2203636,20.5456774 16.2392727,20.5527258 C16.2705455,20.5653387 16.3047273,20.5701613 16.3392727,20.5735 C16.3505455,20.5746129 16.3603636,20.5805484 16.372,20.5805484 L16.9174545,20.5805484 C17.5189091,20.5805484 18.0083636,20.0812258 18.0083636,19.4676452 L18.0083636,18.5394839 C18.0083636,18.4374677 18.0901818,18.354 18.1901818,18.354 C18.2901818,18.354 18.372,18.4374677 18.372,18.5394839 L18.372,19.4676452 C18.372,20.0812258 18.8614545,20.5805484 19.4629091,20.5805484 L20.0101818,20.5805484 C20.0218182,20.5805484 20.0316364,20.5746129 20.0429091,20.5735 C20.0778182,20.5701613 20.1116364,20.5657097 20.1429091,20.5527258 C20.1618182,20.5453065 20.1767273,20.5326935 20.1938182,20.5223065 C20.2156364,20.5093226 20.2370909,20.4974516 20.2556364,20.4800161 C20.2701818,20.4662903 20.2803636,20.4492258 20.2930909,20.4332742 C20.3083636,20.4132419 20.3232727,20.3939516 20.3345455,20.3705806 C20.3432727,20.3516613 20.348,20.332 20.3538182,20.3119677 C20.3589091,20.2949032 20.368,20.2796935 20.3705455,20.2611452 L20.7149091,17.8038548 C21.192,17.3805806 21.4650909,16.7799839 21.4650909,16.1278226 C21.4647273,14.9006613 20.4861818,13.9027581 19.2829091,13.9027581 L19.2829091,13.9027581 Z M20.1556364,17.3156613 C20.1472727,17.3223387 20.1429091,17.3319839 20.1349091,17.3390323 C20.1072727,17.3642581 20.0807273,17.3905968 20.0614545,17.4236129 C20.0414545,17.4581129 20.0309091,17.4955806 20.0229091,17.5341613 C20.0210909,17.5430645 20.0152727,17.5504839 20.0141818,17.5597581 L19.6945455,19.8382419 L19.4629091,19.8382419 C19.2621818,19.8382419 19.0992727,19.6720484 19.0992727,19.4672742 L19.0992727,18.5391129 C19.0992727,18.0275484 18.6916364,17.6116935 18.1901818,17.6116935 C17.6887273,17.6116935 17.2810909,18.0275484 17.2810909,18.5391129 L17.2810909,19.4672742 C17.2810909,19.6720484 17.1181818,19.8382419 16.9174545,19.8382419 L16.6876364,19.8382419 L16.368,17.5590161 C16.3665455,17.5482581 16.3603636,17.5397258 16.3578182,17.5293387 C16.3494545,17.4926129 16.3396364,17.4562581 16.3207273,17.4232419 C16.2963636,17.3805806 16.264,17.3434839 16.2254545,17.3141774 C15.856,17.0307581 15.6443636,16.5985806 15.6443636,16.1278226 C15.6443636,15.3102097 16.2967273,14.6446935 17.0989091,14.6446935 C17.4109091,14.6446935 17.7127273,14.7500484 17.9716364,14.9492581 C18.1007273,15.0494194 18.2807273,15.0494194 18.4098182,14.9492581 C18.6687273,14.7500484 18.9705455,14.6446935 19.2825455,14.6446935 C20.0847273,14.6446935 20.7370914,15.3102097 20.7370914,16.1278226 C20.7374545,16.5993226 20.5254545,17.0322419 20.1556364,17.3156613 L20.1556364,17.3156613 Z" id="Shape"></path>
                                        </g>
                                    </g>
                                </g>
                            </g>
                        </g>
                    </g>
                </g>
            </g>
        </g>
    </g>
</svg>