<?xml version="1.0" encoding="UTF-8"?>
<svg width="14px" height="14px" viewBox="0 0 14 14" version="1.1" xmlns="http://www.w3.org/2000/svg" xmlns:xlink="http://www.w3.org/1999/xlink">
    <title>Shape</title>
    <g id="Site" stroke="none" stroke-width="1" fill="none" fill-rule="evenodd">
        <g id="Our-rooms-Page-Copy" transform="translate(-1200.000000, -709.000000)" fill="#FF93E8" fill-rule="nonzero">
            <g id="Programeaza-te" transform="translate(1164.000000, 593.000000)">
                <g id="checkbox-2-copy-8" transform="translate(36.000000, 116.000000)">
                    <g id="checkbox-copy">
                        <path d="M12.359375,14 L1.640625,14 C0.735931383,14 0,13.2640686 0,12.359375 L0,1.640625 C0,0.735931383 0.735931383,0 1.640625,0 L12.359375,0 C13.2640686,0 14,0.735931383 14,1.640625 L14,12.359375 C14,13.2640686 13.2640686,14 12.359375,14 Z M1.640625,1.09375 C1.33909606,1.09375 1.09375,1.33909606 1.09375,1.640625 L1.09375,12.359375 C1.09375,12.6609039 1.33909606,12.90625 1.640625,12.90625 L12.359375,12.90625 C12.6609039,12.90625 12.90625,12.6609039 12.90625,12.359375 L12.90625,1.640625 C12.90625,1.33909606 12.6609039,1.09375 12.359375,1.09375 L1.640625,1.09375 Z M11.7823792,4.13830566 L10.967514,3.40856934 L5.90988158,9.0568695 L2.9744873,6.26652526 L2.220932,7.05917357 L5.9730072,10.6260376 L11.7823792,4.13830566 Z" id="Shape"></path>
                    </g>
                </g>
            </g>
        </g>
    </g>
</svg>