<?xml version="1.0" encoding="UTF-8"?>
<svg width="89px" height="89px" viewBox="0 0 89 89" version="1.1" xmlns="http://www.w3.org/2000/svg" xmlns:xlink="http://www.w3.org/1999/xlink">
    <!-- Generator: Sketch 52 (66869) - http://www.bohemiancoding.com/sketch -->
    <title>clock</title>
    <desc>Created with Sketch.</desc>
    <g id="clock" stroke="none" stroke-width="1" fill="none" fill-rule="evenodd">
        <g transform="translate(0.000000, 1.000000)" fill="#BC68AA" id="Path">
            <path d="M78.7402344,23.154785 C76.9176432,24.0365398 76.1549479,26.2297363 77.0367024,28.0514323 C79.445638,33.0277507 80.6666667,38.391683 80.6666667,44 C80.6666667,64.217692 64.217692,80.6666667 44,80.6666667 C23.782308,80.6666667 7.33333333,64.217692 7.33333333,44 C7.33333333,23.782308 23.782308,7.33333333 44,7.33333333 C52.3780111,7.33333333 60.2484538,10.0690104 66.7626953,15.2440592 C68.342692,16.5053712 70.6531577,16.2412924 71.9144695,14.6559245 C73.1757812,13.0714517 72.9117024,10.7636719 71.3254394,9.50415033 C63.6134441,3.37483713 53.9087727,0 44,0 C19.7396648,0 0,19.7396648 0,44 C0,68.2603352 19.7396648,88 44,88 C68.2603352,88 88,68.2603352 88,44 C88,37.2771809 86.531901,30.834554 83.6368816,24.858317 C82.7569174,23.0321451 80.5565592,22.2712403 78.7402344,23.154785 Z"></path>
            <path d="M44.7142857,14 C42.6639928,14 41,15.6924371 41,17.7777778 L41,44.2222222 C41,46.3075629 42.6639928,48 44.7142857,48 L63.2857143,48 C65.3360072,48 67,46.3075629 67,44.2222222 C67,42.1368816 65.3360072,40.4444444 63.2857143,40.4444444 L48.4285714,40.4444444 L48.4285714,17.7777778 C48.4285714,15.6924371 46.7645786,14 44.7142857,14 Z"></path>
        </g>
    </g>
</svg>