<?xml version="1.0" encoding="UTF-8"?>
<svg width="18px" height="18px" viewBox="0 0 18 18" version="1.1" xmlns="http://www.w3.org/2000/svg" xmlns:xlink="http://www.w3.org/1999/xlink">
    <!-- Generator: Sketch 58 (84663) - https://sketch.com -->
    <title>cancel</title>
    <desc>Created with Sketch.</desc>
    <g id="Site" stroke="none" stroke-width="1" fill="none" fill-rule="evenodd">
        <g id="Help-Desk" transform="translate(-960.000000, -1277.000000)" fill="#363636">
            <g id="cancel" transform="translate(969.000000, 1286.000000) scale(-1, -1) translate(-969.000000, -1286.000000) translate(960.000000, 1277.000000)">
                <path d="M9.9944092,9.00003955 L17.7940465,1.20034805 C18.0686512,0.925742712 18.0686512,0.480524179 17.7940465,0.205954001 C17.5194418,-0.0686161774 17.0742244,-0.0686513337 16.7996549,0.205954001 L8.99998242,8.00564551 L1.20034512,0.205954001 C0.925740452,-0.0686513337 0.480523006,-0.0686513337 0.205953498,0.205954001 C-0.0686160099,0.480559336 -0.0686511661,0.925777868 0.205953498,1.20034805 L8.0055908,9 L0.205953498,16.7996959 C-0.0686511661,17.0743012 -0.0686511661,17.5195198 0.205953498,17.7940899 C0.343238252,17.931375 0.523202569,18 0.703166885,18 C0.883131202,18 1.06306036,17.931375 1.20038027,17.7940899 L8.99998242,9.9944336 L16.7996197,17.7940899 C16.9369045,17.931375 17.1168688,18 17.2968331,18 C17.4767974,18 17.6567266,17.931375 17.7940465,17.7940899 C18.0686512,17.5194846 18.0686512,17.0742661 17.7940465,16.7996959 L9.9944092,9.00003955 Z" id="Path"></path>
            </g>
        </g>
    </g>
</svg>