<?xml version="1.0" encoding="UTF-8"?>
<svg width="89px" height="89px" viewBox="0 0 89 89" version="1.1" xmlns="http://www.w3.org/2000/svg" xmlns:xlink="http://www.w3.org/1999/xlink">
    <!-- Generator: Sketch 52 (66869) - http://www.bohemiancoding.com/sketch -->
    <title>person</title>
    <desc>Created with Sketch.</desc>
    <g id="person" stroke="none" stroke-width="1" fill="none" fill-rule="evenodd">
        <g id="user-(2)-2" fill="#BC68AA">
            <g id="user-(2)">
                <path d="M44.5,89 C33.9634082,89 23.7438789,85.2515703 15.7239707,78.4449824 C13.8408906,76.8478496 12.0744492,75.0770625 10.4741875,73.1823359 C3.71940039,65.1758125 0,54.9900059 0,44.5 C0,32.613459 4.62869531,21.4385703 13.0336328,13.0336328 C21.4385703,4.62869531 32.613459,0 44.5,0 C56.386541,0 67.5614297,4.62869531 75.9663672,13.0336328 C84.3713047,21.4385703 89,32.613459 89,44.5 C89,54.9901797 85.2805996,65.1759863 78.5266816,73.181293 C76.9255508,75.0770625 75.1591094,76.8478496 73.2755078,78.4455039 C65.2561211,85.2515703 55.0365918,89 44.5,89 Z M44.5,5.5625 C23.029793,5.5625 5.5625,23.029793 5.5625,44.5 C5.5625,53.6789941 8.81638867,62.5909883 14.7248066,69.5943496 C16.1258613,71.2531914 17.6731055,72.8042598 19.3227344,74.2035762 C26.3391328,80.1582324 35.2803301,83.4375 44.5,83.4375 C53.7196699,83.4375 62.6608672,80.1582324 69.6767441,74.2039238 C71.3268945,72.8042598 72.8741387,71.2530176 74.2760625,69.5931328 C80.1836113,62.5911621 83.4375,53.679168 83.4375,44.5 C83.4375,23.029793 65.970207,5.5625 44.5,5.5625 Z" id="Shape" fill-rule="nonzero"></path>
                <path d="M44.5,44.5 C35.2984082,44.5 27.8125,37.0140918 27.8125,27.8125 C27.8125,18.6109082 35.2984082,11.125 44.5,11.125 C53.7015918,11.125 61.1875,18.6109082 61.1875,27.8125 C61.1875,37.0140918 53.7015918,44.5 44.5,44.5 Z M44.5,16.6875 C38.3656055,16.6875 33.375,21.6781055 33.375,27.8125 C33.375,33.9468945 38.3656055,38.9375 44.5,38.9375 C50.6343945,38.9375 55.625,33.9468945 55.625,27.8125 C55.625,21.6781055 50.6343945,16.6875 44.5,16.6875 Z" id="Shape" fill-rule="nonzero"></path>
                <path d="M71.4784727,79.1063984 C71.2542344,79.1063984 71.0265195,79.0791074 70.7991523,79.0220918 C69.3094453,78.6481875 68.4048437,77.1372734 68.778748,75.6473926 C69.2779824,73.6582773 69.53125,71.6005 69.53125,69.53125 C69.53125,55.9231152 58.4677852,44.6971211 44.8662559,44.5017383 L44.5,44.5 L44.1337441,44.5017383 C30.5322148,44.6971211 19.46875,55.9231152 19.46875,69.53125 C19.46875,71.6005 19.7220176,73.6582773 20.221252,75.6473926 C20.5951562,77.1372734 19.6905547,78.6481875 18.2008477,79.0220918 C16.7111406,79.3959961 15.2000527,78.4915684 14.8261484,77.0016875 C14.2156641,74.5700059 13.90625,72.056625 13.90625,69.53125 C13.90625,61.4346836 17.0381113,53.8027598 22.7248984,48.0408789 C28.406123,42.2847344 35.985377,39.0525742 44.0664727,38.9395859 C44.0795098,38.9394121 44.092373,38.9394121 44.1054102,38.9394121 L44.5,38.9375 L44.8945898,38.9392383 C44.907627,38.9392383 44.9204902,38.9392383 44.9335273,38.9394121 C53.014623,39.0522266 60.593877,42.2845605 66.2751016,48.0407051 C71.9618887,53.8027598 75.09375,61.4346836 75.09375,69.53125 C75.09375,72.056625 74.7843359,74.5700059 74.1738516,77.0016875 C73.8569629,78.2640273 72.7236035,79.1062246 71.4784727,79.1063984 Z" id="Path"></path>
            </g>
        </g>
    </g>
</svg>