
<svg width="17px" height="17px" viewBox="0 0 17 17" version="1.1" xmlns="http://www.w3.org/2000/svg" xmlns:xlink="http://www.w3.org/1999/xlink">

    <g id="Site" stroke="none" stroke-width="1" fill="none" fill-rule="evenodd">
        <g id="Main-Page" transform="translate(-1141.000000, -31.000000)" fill="#BC68AA">
            <g id="Header" transform="translate(-24.000000, -72.000000)">
                <g id="Group-18" transform="translate(351.000000, 0.000000)">
                    <g id="Group-17" transform="translate(814.000000, 76.000000)">
                        <g id="telephone-2" transform="translate(0.000000, 27.000000)">
                            <g id="telephone">
                                <path d="M10.7664121,0 C10.6100254,0 10.4830898,0.126935547 10.4830898,0.283322266 C10.4830898,0.439708984 10.6100254,0.566644531 10.7664121,0.566644531 C13.8910254,0.566644531 16.4330898,3.10870898 16.4330898,6.23332227 C16.4330898,6.38970898 16.5600254,6.51664453 16.7164121,6.51664453 C16.8730977,6.51664453 16.9997344,6.38970898 16.9997344,6.23332227 C16.9997344,2.79623437 14.2035332,0 10.7664121,0 Z" id="Path"></path>
                                <path d="M10.7664121,1.7 C10.6100254,1.7 10.4830898,1.82693555 10.4830898,1.98332227 C10.4830898,2.13970898 10.6100254,2.26664453 10.7664121,2.26664453 C12.9537344,2.26664453 14.7330898,4.0459668 14.7330898,6.23332227 C14.7330898,6.38970898 14.8600254,6.51664453 15.0164121,6.51664453 C15.1730977,6.51664453 15.2997344,6.38970898 15.2997344,6.23332227 C15.2997344,3.73379102 13.2662422,1.7 10.7664121,1.7 Z" id="Path"></path>
                                <path d="M10.7664121,3.4 C10.6100254,3.4 10.4830898,3.52693555 10.4830898,3.68332227 C10.4830898,3.83970898 10.6100254,3.96664453 10.7664121,3.96664453 C12.0162109,3.96664453 13.0330898,4.98352344 13.0330898,6.23332227 C13.0330898,6.38970898 13.1600254,6.51664453 13.3164121,6.51664453 C13.4730977,6.51664453 13.5997344,6.38970898 13.5997344,6.23332227 C13.5997344,4.67104883 12.3286855,3.4 10.7664121,3.4 Z" id="Path"></path>
                                <path d="M15.332041,10.6321055 C14.5610977,10.5306699 13.8009121,10.3414121 13.0727344,10.0702422 C12.3675332,9.80587891 11.5662422,9.97644336 11.0296133,10.506 L10.1339922,11.3996289 C8.25605664,10.2923711 6.68724219,8.72667773 5.57742773,6.85242773 L6.47361328,5.95823437 C7.00343555,5.42359766 7.17456445,4.62316992 6.90966992,3.91966211 C6.63796875,3.19264648 6.44841211,2.4341543 6.34641211,1.66204883 C6.21067773,0.704935547 5.38192773,-0.00368554688 4.41322656,-1.43100863e-05 L1.93434766,-1.43100863e-05 C1.87654102,-1.43100863e-05 1.81873437,0.00282226562 1.76152539,0.00793554687 C1.24667773,0.0544199219 0.780605469,0.298363281 0.449371094,0.694476562 C0.118169922,1.09085547 -0.0388144531,1.59235547 0.008234375,2.11112109 C0.282791016,4.69173437 1.17529102,7.20687109 2.58771875,9.38287109 C3.87008984,11.3968066 5.61458203,13.1378789 7.63047656,14.4162988 C9.80252539,15.8221855 12.3108555,16.7127266 14.890041,16.9923633 C14.9484121,16.9974766 15.0070488,17 15.0659844,17 C15.0676777,17 15.0693711,17 15.0713633,17 C16.1389766,16.9954512 17.0036855,16.1250645 16.9994355,15.0605723 L16.9994355,12.5901934 C17.0218477,11.6107344 16.3066855,10.7692344 15.332041,10.6321055 Z M16.432791,12.58 C16.432791,12.5822578 16.432791,12.5848145 16.432791,12.5870723 L16.432791,15.062 C16.4356133,15.8151133 15.8239121,16.4305 15.0694043,16.4336211 C15.0252109,16.4319277 14.9827109,16.4319277 14.945291,16.4285078 C12.4593398,16.1587656 10.0362422,15.2985723 7.93591211,13.9391367 C5.98771875,12.7035156 4.30358984,11.0227734 3.0642832,9.07627344 C1.69887109,6.97285547 0.836984375,4.54354883 0.572056641,2.05560547 C0.539185547,1.69236328 0.649984375,1.33821875 0.884298828,1.05798438 C1.11861328,0.77775 1.44812109,0.605226563 1.81249219,0.572355469 C1.853,0.568669922 1.89354102,0.566677734 1.93431445,0.566677734 L4.41575,0.566677734 C4.42029883,0.566677734 4.42481445,0.566677734 4.42936328,0.566677734 C5.10823437,0.566677734 5.68991992,1.06960547 5.78481445,1.73881445 C5.89219336,2.55056445 6.09194336,3.35125781 6.37895117,4.11881445 C6.56625,4.61633008 6.44525781,5.18187891 6.07208789,5.55843555 L5.02263672,6.60562891 C4.93195898,6.69600781 4.91326562,6.83542773 4.97645117,6.94649219 C6.17720898,9.05449219 7.92850781,10.8021055 10.0401934,12.0003066 C10.1512578,12.0634922 10.2900801,12.0442344 10.3801934,11.9544199 L11.4285156,10.9083555 C11.8073301,10.5346543 12.3748379,10.4142266 12.8740801,10.6012266 C13.6424668,10.8874043 14.4445879,11.0871543 15.255209,11.1936699 C15.9437422,11.2905566 16.4500566,11.8864199 16.432791,12.58 Z" id="Shape" fill-rule="nonzero"></path>
                                <path d="M4.2500332,1.13335547 L1.93434766,1.13335547 C1.91054102,1.13335547 1.8870332,1.13448437 1.86352539,1.13674219 C1.57482422,1.16280664 1.3982832,1.32656445 1.31896094,1.42149219 C1.25521094,1.49769336 1.10958203,1.70567773 1.13508203,1.99129102 C1.24219531,2.9962832 1.43596875,3.97404883 1.7116543,4.89772656 C1.74847656,5.02041211 1.86096875,5.1000332 1.98308984,5.1000332 C2.01001758,5.1000332 2.03721094,5.09634766 2.0644043,5.08814648 C2.2142832,5.04338867 2.29958203,4.88557422 2.25479102,4.73569531 C1.9890332,3.84545312 1.8020332,2.90195312 1.69916992,1.93607422 C1.69266211,1.86412305 1.73941211,1.80206641 1.75385547,1.78450195 C1.77709766,1.75674414 1.82892773,1.70886523 1.93434766,1.70006641 L4.24946875,1.70006641 C4.24976758,1.70006641 4.24976758,1.70006641 4.24976758,1.70006641 C4.4061543,1.70006641 4.53309026,1.57342969 4.53309026,1.41700977 C4.53335547,1.26055664 4.40641992,1.13335547 4.2500332,1.13335547 Z" id="Path"></path>
                                <path d="M15.5830566,12.4666777 C15.4266699,12.4666777 15.2997344,12.5936133 15.2997344,12.75 L15.2994355,15.0617012 C15.2997344,15.1254512 15.2753633,15.1855156 15.2308711,15.2302734 C15.1863789,15.2750312 15.1274434,15.2997012 15.0713633,15.2999668 L15.0452988,15.2994023 C14.0771621,15.1942812 13.1415977,15.0078457 12.2646699,14.745209 C12.1153555,14.7001523 11.9569766,14.7854512 11.9119199,14.9353301 C11.8668633,15.085209 11.9521621,15.2430234 12.102041,15.2880801 C13.0118398,15.5606445 13.9816699,15.7538867 14.9892187,15.8632578 C15.0124609,15.8655156 15.0597754,15.8666445 15.066582,15.8666445 C15.2810742,15.8657812 15.4822187,15.7816445 15.6332598,15.6295078 C15.7842676,15.4770723 15.8670098,15.2747656 15.8661465,15.0605723 L15.8664121,12.75 C15.8664121,12.5936133 15.7394766,12.4666777 15.5830566,12.4666777 Z" id="Path"></path>
                            </g>
                        </g>
                    </g>
                </g>
            </g>
        </g>
    </g>
</svg>