<?xml version="1.0" encoding="UTF-8"?>
<svg width="21px" height="22px" viewBox="0 0 21 22" version="1.1" xmlns="http://www.w3.org/2000/svg" xmlns:xlink="http://www.w3.org/1999/xlink">
    <!-- Generator: Sketch 58 (84663) - https://sketch.com -->
    <title>elearning</title>
    <desc>Created with Sketch.</desc>
    <g id="Site" stroke="none" stroke-width="1" fill="none" fill-rule="evenodd">
        <g id="Home_Page_Hasdeu-Copy" transform="translate(-556.000000, -1993.000000)" fill="#FFFFFF" fill-rule="nonzero">
            <g id="Carti-electronice" transform="translate(265.000000, 1608.378670)">
                <g id="Group-2">
                    <g id="Group-10" transform="translate(0.000000, 94.000000)">
                        <g id="Group-11" transform="translate(283.000000, 283.000000)">
                            <g id="Group-10-Copy-4" transform="translate(8.000000, 8.000000)">
                                <g id="elearning">
                                    <path d="M19.1542969,0 L1.84570312,0 C0.827982422,0 0,0.827982422 0,1.84570312 L0,14.2324219 C0,15.2501426 0.827982422,16.078125 1.84570312,16.078125 L7.42382812,16.078125 L7.42382812,17.3085937 L6.80859375,17.3085937 C5.79087305,17.3085937 4.96289062,18.1365762 4.96289062,19.1542969 L4.96289062,20.3847656 C4.96289062,20.7245391 5.23835156,21 5.578125,21 L15.421875,21 C15.7616484,21 16.0371094,20.7245391 16.0371094,20.3847656 L16.0371094,19.1542969 C16.0371094,18.1365762 15.209127,17.3085937 14.1914062,17.3085937 L13.5761719,17.3085937 L13.5761719,16.078125 L19.1542969,16.078125 C20.1720176,16.078125 21,15.2501426 21,14.2324219 L21,1.84570312 C21,0.827982422 20.1720176,0 19.1542969,0 Z M14.1914063,18.5390625 C14.5306465,18.5390625 14.8066406,18.8150566 14.8066406,19.1542969 L14.8066406,19.7695313 L6.19335938,19.7695313 L6.19335938,19.1542969 C6.19335938,18.8150566 6.46935352,18.5390625 6.80859375,18.5390625 C7.10169141,18.5390625 13.8981035,18.5390625 14.1914063,18.5390625 Z M8.65429688,17.3085938 L8.65429688,16.078125 L12.3457031,16.078125 L12.3457031,17.3085938 L8.65429688,17.3085938 Z M19.7695313,14.2324219 C19.7695313,14.5716621 19.4935371,14.8476563 19.1542969,14.8476563 L12.9609375,14.8476563 L8.0390625,14.8476563 L1.84570313,14.8476563 C1.50646289,14.8476563 1.23046875,14.5716621 1.23046875,14.2324219 L1.23046875,1.84570313 C1.23046875,1.50646289 1.50646289,1.23046875 1.84570313,1.23046875 L19.1542969,1.23046875 C19.4935371,1.23046875 19.7695313,1.50646289 19.7695313,1.84570313 L19.7695313,14.2324219 Z" id="Shape"></path>
                                    <path d="M16.9145088,2.82333441 C14.8959412,2.01588255 12.4890142,2.23825135 10.4796292,3.8457924 C8.47835146,2.24474537 6.07245846,2.01236668 4.04470823,2.82337577 C3.80914457,2.91755988 3.65469422,3.14571952 3.65469422,3.39944165 L3.65469422,11.6791632 C3.65469422,11.8850695 3.75682006,12.0774913 3.92731935,12.1929361 C4.09777727,12.3083809 4.31435521,12.3316684 4.50557748,12.2552291 C6.21189395,11.5726943 8.16361854,11.8618233 9.59884033,13.0100256 C10.1268421,13.4323856 10.1457451,13.4609263 10.2760393,13.5061777 C10.2760393,13.5061777 10.2760393,13.5061777 10.2760807,13.5061777 C10.3343201,13.5264456 10.4115453,13.5405091 10.4790501,13.5405091 C10.4792156,13.5405091 10.479381,13.5405091 10.4795465,13.5405091 C10.4795878,13.5405091 10.4795878,13.5405091 10.4796292,13.5405091 C10.4796706,13.5405091 10.4796706,13.5405091 10.4797119,13.5405091 C10.4798774,13.5405091 10.4800428,13.5405091 10.4802083,13.5405091 C10.7678069,13.5402196 10.9124955,13.3683553 11.3604181,13.0100256 C12.7955985,11.8618647 14.7473231,11.5726943 16.4536809,12.2552705 C16.6448619,12.3317098 16.8614398,12.3083809 17.0319391,12.1929774 C17.2024384,12.077574 17.3045642,11.8850695 17.3045642,11.6791632 L17.3045642,3.39940029 C17.3045642,3.14567816 17.1501139,2.91755988 16.9145088,2.82333441 Z M9.85918058,11.6698565 C8.82059092,10.9976625 7.6157624,10.649963 6.40038625,10.649963 C5.89695422,10.649963 5.39153677,10.7096502 4.89559149,10.8306377 L4.89559149,3.83756111 C6.4992444,3.34277401 8.18173564,3.59645477 9.85918058,4.93852654 L9.85918058,11.6698565 Z M16.0636669,10.8305963 C14.370504,10.4176671 12.5689693,10.7191637 11.1000778,11.6698979 L11.1000778,4.93852654 C12.7885254,3.5876444 14.4736225,3.34691033 16.0636669,3.83756111 L16.0636669,10.8305963 Z" id="Shape"></path>
                                </g>
                            </g>
                        </g>
                    </g>
                </g>
            </g>
        </g>
    </g>
</svg>