<?xml version="1.0" encoding="UTF-8"?>
<svg width="19px" height="19px" viewBox="0 0 19 19" version="1.1" xmlns="http://www.w3.org/2000/svg" xmlns:xlink="http://www.w3.org/1999/xlink">
    <!-- Generator: Sketch 58 (84663) - https://sketch.com -->
    <title>Shape</title>
    <desc>Created with Sketch.</desc>
    <g id="Site" stroke="none" stroke-width="1" fill="none" fill-rule="evenodd">
        <g id="Home_Page_Hasdeu-Copy" transform="translate(-557.000000, -2869.000000)" fill="#FFFFFF" fill-rule="nonzero">
            <g id="Carti-audio" transform="translate(265.000000, 2483.757769)">
                <g id="Group-2">
                    <g id="Group-15" transform="translate(283.000000, 377.000000)">
                        <path d="M18.4628906,9 C13.2450527,9 9,13.2897375 9,18.5625 C9,18.8097 9,23.9403 9,24.1875 C9,25.1179875 9.74912695,25.875 10.6699219,25.875 L11.3223047,25.875 C11.5520859,26.529675 12.1708105,27 12.8964844,27 C13.8172793,27 14.5664062,26.2429875 14.5664062,25.3125 L14.5664062,19.6875 C14.5664062,18.7570125 13.8172793,18 12.8964844,18 C12.7078945,18 12.5267266,18.0322125 12.3575078,18.0907125 C12.5968262,14.89845 15.2436895,12.375 18.4628906,12.375 C21.7210937,12.375 24.4000195,14.89845 24.6422695,18.0906375 C24.473125,18.032175 24.2920312,18 24.1035156,18 C23.1827207,18 22.4335937,18.7570125 22.4335937,19.6875 L22.4335937,25.3125 C22.4335937,26.2429875 23.1827207,27 24.1035156,27 C24.8291895,27 25.4479141,26.529675 25.6776953,25.875 L26.3300781,25.875 C27.250873,25.875 28,25.1179875 28,24.1875 L28,20.8125 L28,18.5625 C28,13.2403875 23.6412441,9 18.4628906,9 Z M11.2265625,24.75 L10.6699219,24.75 C10.3629902,24.75 10.1132813,24.4976625 10.1132813,24.1875 L10.1132813,20.8125 C10.1132813,20.5023375 10.3629902,20.25 10.6699219,20.25 L11.2265625,20.25 L11.2265625,24.75 Z M12.8964844,19.125 C13.203416,19.125 13.453125,19.3773375 13.453125,19.6875 L13.453125,25.3125 C13.453125,25.6226625 13.203416,25.875 12.8964844,25.875 C12.5895527,25.875 12.3398437,25.6226625 12.3398437,25.3125 L12.3398437,19.6875 C12.3398437,19.3773375 12.5895527,19.125 12.8964844,19.125 Z M24.6601563,25.3125 C24.6601563,25.6226625 24.4104473,25.875 24.1035156,25.875 C23.796584,25.875 23.546875,25.6226625 23.546875,25.3125 L23.546875,19.6875 C23.546875,19.3773375 23.796584,19.125 24.1035156,19.125 C24.4104473,19.125 24.6601563,19.3773375 24.6601563,19.6875 L24.6601563,25.3125 Z M26.8867188,24.1875 C26.8867188,24.4976625 26.6370098,24.75 26.3300781,24.75 L25.7734375,24.75 L25.7734375,20.25 L26.3300781,20.25 C26.6370098,20.25 26.8867188,20.5023375 26.8867188,20.8125 L26.8867188,24.1875 Z M26.8867188,19.22175 C26.7124902,19.1593125 26.5251992,19.125 26.3300781,19.125 L25.7734375,19.125 L25.7734375,18.5625 C25.7734375,14.511525 22.4449863,11.25 18.4628906,11.25 C14.4727793,11.25 11.2265625,14.5303875 11.2265625,18.5625 L11.2265625,19.125 L10.6699219,19.125 C10.4748008,19.125 10.2875098,19.1593125 10.1132813,19.22175 L10.1132813,18.5625 C10.1132813,13.9100625 13.858916,10.125 18.4628906,10.125 C23.1077969,10.125 26.8867188,13.9100625 26.8867188,18.5625 L26.8867188,19.22175 Z" id="Shape"></path>
                    </g>
                </g>
            </g>
        </g>
    </g>
</svg>