<?xml version="1.0" encoding="UTF-8"?>
<svg width="257px" height="274px" viewBox="0 0 257 274" version="1.1" xmlns="http://www.w3.org/2000/svg" xmlns:xlink="http://www.w3.org/1999/xlink">
    <!-- Generator: Sketch 58 (84663) - https://sketch.com -->
    <title>Group 6</title>
    <desc>Created with Sketch.</desc>
    <g id="Site" stroke="none" stroke-width="1" fill="none" fill-rule="evenodd">
        <g id="Main-Page" transform="translate(-900.000000, -983.000000)">
            <g id="Book-your-appoint." transform="translate(875.000000, 907.000000)">
                <g id="Group-6" transform="translate(25.000000, 76.000000)">
                    <path d="M130.5,259 C198.154882,259 253,204.154882 253,136.5 C253,68.8451181 198.154882,14 130.5,14 C62.8451181,14 8,68.8451181 8,136.5 C8,204.154882 62.8451181,259 130.5,259 Z" id="Oval" stroke="#005691" opacity="0.527715774" stroke-dasharray="2"></path>
                    <circle id="Oval" fill="#F9F7EF" cx="239.5" cy="86.5" r="17.5"></circle>
                    <circle id="Oval-Copy" fill="#F9F7EF" cx="124.5" cy="16.5" r="16.5"></circle>
                    <circle id="Oval-Copy-2" fill="#F9F7EF" cx="16.5" cy="92.5" r="16.5"></circle>
                    <circle id="Oval-Copy-2" fill="#F9F7EF" cx="26.5" cy="201.5" r="16.5"></circle>
                    <circle id="Oval-Copy-2" fill="#F9F7EF" cx="128.5" cy="256.5" r="17.5"></circle>
                    <circle id="Oval-Copy-3" fill="#F9F7EF" cx="232.5" cy="200.5" r="14.5"></circle>
                    <g id="030-mobile-phone-2" transform="translate(224.000000, 189.000000)" fill="#005691">
                        <g id="030-mobile-phone">
                            <path d="M7.51519031,0.6875 L6.05623826,0.6875 C5.86735669,0.6875 5.71428571,0.841421324 5.71428571,1.03125 C5.71428571,1.22107868 5.86735669,1.375 6.05623826,1.375 L7.51519031,1.375 C7.70407188,1.375 7.85714286,1.22107868 7.85714286,1.03125 C7.85714286,0.841421324 7.70407188,0.6875 7.51519031,0.6875 Z" id="Path"></path>
                            <path d="M6.78571429,19.25 C6.1949406,19.25 5.71428571,19.7126303 5.71428571,20.28125 C5.71428571,20.8498697 6.1949406,21.3125 6.78571429,21.3125 C7.37648797,21.3125 7.85714286,20.8498697 7.85714286,20.28125 C7.85714286,19.7126303 7.37653347,19.25 6.78571429,19.25 Z M6.78571429,20.6542712 C6.57202922,20.6542712 6.39815983,20.4869657 6.39815983,20.28125 C6.39815983,20.0755343 6.57198372,19.9082288 6.78571429,19.9082288 C6.99944486,19.9082288 7.17326874,20.0755343 7.17326874,20.28125 C7.17326874,20.4869657 6.99944486,20.6542712 6.78571429,20.6542712 Z" id="Shape" fill-rule="nonzero"></path>
                            <path d="M13.1101842,3.44425282 C13.1029844,3.44425282 13.0957847,3.44446766 13.0885849,3.44451063 L13.0885849,1.70057754 C13.0885849,0.762911646 12.3231265,0 11.3823304,0 L1.70625451,0 C0.765458445,0 0,0.762911646 0,1.70057754 L0,20.2994225 C0,21.2371313 0.765458445,22 1.70625451,22 L11.3822873,22 C12.3231265,22 13.0885418,21.2370884 13.0885418,20.2994225 L13.0885418,15.8001988 C13.0957416,15.8001988 13.1029413,15.8004137 13.1101411,15.8004137 C16.9091948,15.8004137 20,13.0289239 20,9.62231176 C20,6.21569964 16.9092379,3.44425282 13.1101842,3.44425282 Z M12.4406506,20.2994654 C12.4406506,20.8810486 11.9658982,21.3542644 11.3823304,21.3542644 L1.70625451,21.3542644 C1.12268676,21.3542644 0.647934383,20.8810486 0.647934383,20.2994654 L0.647934383,18.5558331 L12.4406506,18.5558331 L12.4406506,20.2994654 L12.4406506,20.2994654 Z M12.4406506,17.9100115 L0.647934383,17.9100115 L0.647934383,2.7123217 L2.0661989,2.7123217 C2.24515795,2.7123217 2.39018765,2.56773158 2.39018765,2.38941092 C2.39018765,2.21109026 2.24515795,2.06650013 2.0661989,2.06650013 L0.647934383,2.06650013 L0.647934383,1.70053457 C0.647934383,1.1189514 1.12268676,0.645735636 1.70625451,0.645735636 L11.3822873,0.645735636 C11.9658551,0.645735636 12.4406506,1.1189514 12.4406506,1.70053457 L12.4406506,2.06650013 L3.96688977,2.06650013 C3.78793072,2.06650013 3.64290102,2.21109026 3.64290102,2.38941092 C3.64290102,2.56773158 3.78793072,2.7123217 3.96688977,2.7123217 L12.4406506,2.7123217 L12.4406506,3.47347163 C8.954592,3.77635894 6.22032528,6.41825472 6.22032528,9.62231176 C6.22032528,11.3923269 7.06019551,13.0651896 8.53110012,14.2386255 L8.29510352,16.8259938 C8.27303004,17.0676935 8.52941874,17.2499673 8.75179185,17.1492054 L11.9294683,15.7096635 C12.098684,15.7358745 12.2693655,15.7561128 12.4406506,15.771023 L12.4406506,17.9100115 Z M13.1101842,15.1546351 C12.7179487,15.1546351 12.3237732,15.1217209 11.9385219,15.056881 C11.8748882,15.0461388 11.8093575,15.0546466 11.7504662,15.0812873 L8.9907632,16.3315085 L9.19231308,14.1215354 C9.20240135,14.0105469 9.1544605,13.9022225 9.06534743,13.8349333 C7.66907018,12.7805211 6.86821655,11.2450727 6.86821655,9.6223977 C6.86821655,6.5718683 9.66831571,4.09011736 13.1101411,4.09011736 C16.5519665,4.09011736 19.3520656,6.57191127 19.3520656,9.6223977 C19.3520656,12.6728841 16.5520096,15.1546351 13.1101842,15.1546351 Z" id="Shape" fill-rule="nonzero"></path>
                            <path d="M15.6567258,9.41869599 C15.9641061,9.08784519 16.4285714,8.58791317 16.4285714,7.41111623 C16.4285714,6.32160176 15.4507105,5.5 14.1540362,5.5 C13.6890014,5.5 13.2328591,5.6722385 12.8609977,5.98107136 C12.4883478,5.6722385 12.029402,5.5 11.5602057,5.5 C10.2634876,5.5 9.28571429,6.32160176 9.28571429,7.41111623 C9.28571429,8.58791317 9.75022341,9.08788673 10.0575599,9.41865445 C10.2968671,9.67622288 10.3466734,9.72985528 10.2230117,9.9877976 C9.6605982,11.1613957 9.97630145,12.6926816 10.420485,13.3468639 C10.6021447,13.6143611 10.8110073,13.75 11.0414659,13.75 C11.4921326,13.75 11.622628,13.2666022 11.7878607,12.6546279 C12.02581,11.7735362 12.2704176,11.0441605 12.8571429,11.0441605 C13.4438682,11.0441605 13.6884758,11.7734946 13.9263812,12.6546279 C14.091614,13.2666438 14.2221093,13.75 14.672776,13.75 C14.9031908,13.75 15.112141,13.6143611 15.2937569,13.3468223 C15.7379405,12.6925985 16.0536875,11.1613542 15.4912302,9.9877976 C15.3676123,9.72989682 15.4173748,9.67630597 15.6567258,9.41869599 Z M15.1627797,9.00592181 C14.8951744,9.29389993 14.5919118,9.62030561 14.8918452,10.2461554 C15.129444,10.7417669 15.1951955,11.4120679 15.0722784,12.0851109 C14.9866833,12.5539685 14.8350739,12.8780062 14.724028,13.0337105 C14.6699287,12.8915078 14.6110108,12.6734055 14.5640956,12.4997545 C14.3404268,11.6714643 14.0025144,10.4197648 12.8570552,10.4197648 C11.7115961,10.4197648 11.3736399,11.6714643 11.1500149,12.4997545 C11.1031435,12.6734055 11.0442256,12.8915078 10.9900387,13.0337105 C10.8790804,12.8780893 10.7274272,12.5539685 10.6417883,12.0851109 C10.518915,11.4120264 10.5846665,10.7417669 10.8222214,10.2461554 C11.1221549,9.62030561 10.8189361,9.29389993 10.5513308,9.00592181 C10.280703,8.71462022 9.94388569,8.35211342 9.94388569,7.41115777 C9.94388569,6.66558025 10.6235654,6.12443728 11.5600305,6.12443728 C11.8654833,6.12443728 12.178164,6.24578524 12.4323211,6.4564513 C12.2838657,6.64813206 12.1712428,6.7300139 11.8194442,6.7300139 C11.6376093,6.7300139 11.490249,6.86980709 11.490249,7.04221177 C11.490249,7.21461644 11.6376093,7.35440963 11.8194442,7.35440963 C12.5774912,7.35440963 12.8318235,7.00748157 13.0562808,6.70130748 C13.0713935,6.68070201 13.0872948,6.65934875 13.1030646,6.63812013 C13.1067004,6.63433969 13.1105991,6.63085005 13.1140597,6.62686189 C13.394018,6.30760167 13.7730196,6.12443728 14.1537734,6.12443728 C15.0902823,6.12443728 15.7699621,6.66558025 15.7699621,7.41115777 C15.7702248,8.35207188 15.4334075,8.71462022 15.1627797,9.00592181 Z" id="Shape" fill-rule="nonzero"></path>
                        </g>
                    </g>
                    <g id="022-stethoscope" transform="translate(14.000000, 192.000000)" fill="#005691">
                        <path d="M12.8162158,6.07593924 C13.2875864,5.55919303 14,4.77834283 14,2.93677248 C14,2.1313061 13.6539577,1.38895192 13.0257139,0.846235403 C12.393915,0.300520448 11.5145138,0 10.5495409,0 C9.80998876,0 9.08415609,0.29582935 8.50628394,0.823021722 C7.92726015,0.29582935 7.19702122,0 6.45050913,0 C5.48548617,0 4.60608502,0.300520448 3.97428614,0.846235403 C3.34604232,1.38890356 3,2.13135447 3,2.93682084 C3,4.77834283 3.71241357,5.55924139 4.1837842,6.0759876 C4.57163601,6.5011365 4.70227187,6.6443359 4.46838912,7.14139885 C4.28107262,7.53946512 4.14883448,7.98531288 4.07537997,8.46651315 C4.04508687,8.66508685 4.18713897,8.8497807 4.39273148,8.87908797 C4.59862441,8.90834688 4.78954604,8.77114435 4.81988921,8.57257065 C4.88302904,8.1586417 4.99533882,7.77837259 5.15351386,7.44220947 C5.58898342,6.5168541 5.16172555,6.04846972 4.74848762,5.59551277 C4.30480638,5.10913778 3.7525707,4.50384105 3.7525707,2.9368692 C3.75252063,1.65634451 4.88718495,0.726926754 6.45045906,0.726926754 C7.00735137,0.726926754 7.57686163,0.96786542 8.02014229,1.38131075 C7.73078061,1.7796672 7.54456568,1.97954666 6.86034221,1.97954666 C6.65254658,1.97954666 6.48405686,2.14228424 6.48405686,2.34298586 C6.48405686,2.54368748 6.65254658,2.70642506 6.86034221,2.70642506 C7.98303951,2.70642506 8.34585569,2.202398 8.69675493,1.71495906 C8.72224119,1.67960656 8.74897923,1.64289992 8.7756672,1.60638674 C8.78247689,1.59966444 8.78938672,1.59289379 8.79564562,1.58563951 C9.26551412,1.03992456 9.90477361,0.726926754 10.5494909,0.726926754 C12.1128151,0.726926754 13.2474293,1.65639288 13.2474293,2.9368692 C13.2474293,4.50384105 12.6951936,5.10918614 12.2515124,5.59551277 C11.8382745,6.04846972 11.4110166,6.5168541 11.8464861,7.44220947 C12.4730776,8.77370753 12.2756467,10.6325431 11.7717298,11.7055955 C11.6212156,12.0260894 11.4857729,12.17988 11.4094143,12.2413962 C11.2948012,12.0540909 11.1599093,11.5451309 11.0581145,11.1611863 C10.8811627,10.4935995 10.6805273,9.73693021 10.3275251,9.11383632 C9.87793543,8.32041204 9.2631107,7.91813829 8.49997496,7.91813829 C7.73683923,7.91813829 7.12196443,8.32041204 6.67242486,9.11383632 C6.31932249,9.73697858 6.11873711,10.4936479 5.94183543,11.1611863 C5.83964003,11.5466785 5.70404712,12.05825 5.58913363,12.2436692 C5.36907054,12.0740643 4.92448802,11.274885 4.79375202,10.0342104 C4.7727221,9.8345244 4.58780902,9.68924544 4.38131523,9.70946069 C4.17457109,9.72977266 4.02400688,9.90813111 4.04508687,10.1078171 C4.19279702,11.5099235 4.79870907,13 5.63069276,13 C6.09184886,13 6.29103224,12.524845 6.35647535,12.368733 C6.47078798,12.0959722 6.56346985,11.7463645 6.67082258,11.3415759 C7.06192902,9.86624976 7.46950889,8.64506505 8.49997496,8.64506505 C9.53044104,8.64506505 9.93802091,9.86624976 10.3291273,11.3415759 C10.43643,11.7463645 10.5291119,12.0959722 10.6434746,12.368733 C10.7089678,12.524845 10.9081011,13 11.3692572,13 C11.6813011,13 11.9707629,12.803119 12.2295812,12.4148701 C12.5929982,11.8697355 12.8653357,10.9957404 12.9580175,10.077059 C13.034927,9.31468303 13.0234106,8.18654648 12.5315608,7.14144721 C12.2977281,6.64428754 12.4284141,6.5011365 12.8162158,6.07593924 Z" id="Path"></path>
                        <path d="M24,3.67971037 C24,2.20210856 22.8306562,1 21.3933281,1 C19.956,1 18.7866562,2.20210856 18.7866562,3.67971037 C18.7866562,5.03568458 19.7716875,6.15890868 21.044625,6.33474826 C21.0425156,6.35074682 21.0410625,6.36693813 21.0410625,6.38356314 L21.0410625,17.2645587 C21.0410625,20.5791034 18.4179375,23.2757761 15.1936875,23.2757761 C11.9694375,23.2757761 9.3463125,20.5791516 9.3463125,17.2645587 L9.3463125,15.629718 L10.12125,15.629718 C14.4591094,15.629718 17.9881875,12.0017557 17.9881875,7.5423503 L17.9881875,2.90720166 C17.9881875,2.70721967 17.8304531,2.54506561 17.6359219,2.54506561 L16.8609844,2.54506561 L16.8609844,2.13464476 C16.8609844,1.93466278 16.70325,1.77250871 16.5087187,1.77250871 L16.1329687,1.77250871 C15.5243906,1.77250871 15.02925,2.28152309 15.02925,2.90715347 C15.02925,3.53278385 15.5243906,4.04179822 16.1329687,4.04179822 L16.5087187,4.04179822 C16.70325,4.04179822 16.8609844,3.87964416 16.8609844,3.67966218 L16.8609844,3.2693377 L17.2837031,3.2693377 L17.2837031,7.5423503 C17.2837031,11.6024182 14.0706562,14.9054459 10.1212969,14.9054459 L7.86689062,14.9054459 C3.91748437,14.9054459 0.704484375,11.60237 0.704484375,7.5423503 L0.704484375,3.2693377 L1.12720313,3.2693377 L1.12720313,3.67975856 C1.12720313,3.87974054 1.2849375,4.0418946 1.47946875,4.0418946 L1.85521875,4.0418946 C2.46379688,4.0418946 2.9589375,3.53288022 2.9589375,2.90724984 C2.9589375,2.28161947 2.46379687,1.7725569 1.85517187,1.7725569 L1.47942187,1.7725569 C1.28489062,1.7725569 1.12715625,1.93471096 1.12715625,2.13469295 L1.12715625,2.5451138 L0.352265625,2.5451138 C0.157734375,2.54506561 0,2.70721967 0,2.90720166 L0,7.5423503 C0,12.0017557 3.52907812,15.629718 7.8669375,15.629718 L8.641875,15.629718 L8.641875,17.2645587 C8.641875,20.9784409 11.5810312,24 15.1937344,24 C18.8064375,24 21.7455937,20.9784891 21.7455937,17.2645587 L21.7455937,6.38356314 C21.7455937,6.36693813 21.7441406,6.35074682 21.7420312,6.33474826 C23.0149687,6.15895687 24,5.03573277 24,3.67971037 Z M16.1565469,3.31762251 L16.1330625,3.31762251 C15.9129375,3.31762251 15.7338281,3.13354271 15.7338281,2.90720166 C15.7338281,2.6808606 15.9128906,2.4967808 16.1330625,2.4967808 L16.1565469,2.4967808 L16.1565469,3.31762251 Z M1.8316875,2.4967808 L1.85517187,2.4967808 C2.07529687,2.4967808 2.25440625,2.6808606 2.25440625,2.90720166 C2.25440625,3.13354271 2.07534375,3.31762251 1.85517187,3.31762251 L1.8316875,3.31762251 L1.8316875,2.4967808 Z M21.3933281,5.63519683 C20.3444531,5.63519683 19.4911875,4.75797466 19.4911875,3.67975856 C19.4911875,2.60149426 20.3445,1.72432028 21.3933281,1.72432028 C22.4422031,1.72432028 23.2954687,2.60159064 23.2954687,3.67975856 C23.2954687,4.75792647 22.4422031,5.63519683 21.3933281,5.63519683 Z" id="Shape" fill-rule="nonzero"></path>
                        <path d="M21.5,3 C20.6728884,3 20,3.67288836 20,4.5 C20,5.32711164 20.6728884,6 21.5,6 C22.3271116,6 23,5.32711164 23,4.5 C23,3.67288836 22.3271116,3 21.5,3 Z M21.5,5.21049867 C21.1081909,5.21049867 20.7895013,4.89175655 20.7895013,4.5 C20.7895013,4.10824345 21.1082435,3.78950133 21.5,3.78950133 C21.8918091,3.78950133 22.2104987,4.10824345 22.2104987,4.5 C22.2104987,4.89175655 21.8918091,5.21049867 21.5,5.21049867 Z" id="Shape" fill-rule="nonzero"></path>
                    </g>
                    <g id="009-brace-2" transform="translate(114.000000, 253.000000)" fill="#005691" fill-rule="nonzero">
                        <g id="009-brace">
                            <path d="M27.7113424,3.08648059 C27.6091629,2.85222283 27.3544505,2.75406244 27.142615,2.86680916 C26.9306662,2.97974369 26.841684,3.26120357 26.9438635,3.49546133 C27.6874967,5.20012163 28.0925896,7.64799628 28.1477575,10.7712244 C28.1520055,11.0110538 28.0085918,11.2256544 27.7989086,11.2930145 C26.9140705,11.5771663 25.248613,12.0538827 24.0362229,12.0538827 C22.8237195,12.0538827 21.1583752,11.5771037 20.2735938,11.2930145 C20.0639106,11.2256544 19.9203835,11.0111164 19.9246882,10.7712244 C19.9420202,9.79187422 19.9925436,8.910121 20.0698012,8.11525975 C20.6543313,8.05052899 21.2474141,7.95399626 21.8296219,7.81564521 C21.9600083,8.47910425 22.4950912,8.97766887 23.1338263,8.97766887 L24.9514769,8.97766887 C25.6875203,8.97766887 26.2863238,8.31583748 26.2863238,7.50232076 L26.2863238,5.49335074 C26.2863238,4.67983401 25.6875203,4.01800263 24.9514769,4.01800263 L23.1338263,4.01800263 C22.3977828,4.01800263 21.7989794,4.67983401 21.7989794,5.49335074 L21.7989794,6.85626515 C21.2685976,6.98873159 20.7237725,7.08388707 20.1822893,7.14974467 C20.9629088,1.45124623 23.2537909,0.941788816 24.0362229,0.941788816 C24.5028274,0.941788816 25.2072654,1.09973439 25.9128929,1.85227649 C26.082248,2.03288409 26.3519135,2.02756289 26.5152647,1.84038205 C26.6786159,1.65332642 26.6738015,1.35515172 26.504503,1.17466933 C25.5941767,0.203895651 24.6597782,0 24.0361662,0 C23.3142829,0 21.9344635,0.287469705 20.8036923,2.21180143 C20.0848109,3.43530054 19.5867143,5.11698579 19.3135371,7.23200408 C19.233051,7.23757568 19.1527914,7.24277167 19.0729849,7.24727904 C18.7830421,5.59107291 18.3354122,4.24255704 17.7324173,3.21625513 C16.6017028,1.29186081 15.2218833,1.00451631 14.4999434,1.00451631 C13.7780601,1.00451631 12.3982406,1.29186081 11.2674694,3.21619253 C10.6724609,4.22884713 10.2288524,5.55557742 9.93862643,7.18173444 C9.85043716,7.17096685 9.76281429,7.15944803 9.6755879,7.14755359 C9.40020174,5.07184954 8.90550352,3.41902394 8.19613777,2.21167622 C7.06536663,0.2873445 5.68554716,0 4.96366385,0 C4.24178055,0 2.86196108,0.2873445 1.73118994,2.21167622 C0.650432359,4.05118184 0.0680546331,6.92481465 0,10.7526941 C-0.0115252838,11.41728 0.384505164,12.0113131 0.963257897,12.1971793 C1.8916525,12.4952914 3.6458091,12.9954837 4.96372049,12.9954837 C6.28168853,12.9954837 8.03584513,12.4952914 8.96412645,12.1971793 C9.1867803,12.1256875 9.38202014,11.9933463 9.53778154,11.8202509 C9.55137526,12.4589821 9.93919284,13.0217141 10.4995374,13.2016956 C11.427932,13.4998703 13.1820886,14 14.5,14 C15.8179114,14 17.5721246,13.4998077 18.5004626,13.2016956 C19.0608072,13.0217141 19.4486247,12.4589821 19.4622185,11.8202509 C19.6179799,11.9933463 19.8132197,12.1256875 20.0358735,12.1971793 C20.9641549,12.4952914 22.7183115,12.9954837 24.0362795,12.9954837 C25.3541909,12.9954837 27.1084041,12.4952914 28.0367421,12.1971793 C28.6154948,12.0113131 29.0115253,11.4173426 29,10.7527567 C28.9420274,7.49324342 28.5085009,4.91390397 27.7113424,3.08648059 Z M22.6509659,5.49328814 L22.6509659,5.49328814 C22.6510225,5.19905739 22.8676159,4.95966624 23.1338263,4.95966624 L24.9514769,4.95966624 C25.2176873,4.95966624 25.4342806,5.19905739 25.4342806,5.49328814 L25.4342806,7.50225815 C25.4342806,7.79648891 25.2176873,8.03588005 24.9514769,8.03588005 L23.1338263,8.03588005 C22.8937271,8.03588005 22.6945225,7.84087393 22.6576495,7.58683384 C23.2083085,7.41129703 23.7394832,7.19175081 24.2331619,6.91893004 C24.4435814,6.80267759 24.528882,6.51984045 24.4237006,6.28721035 C24.3185192,6.05458025 24.0627873,5.96030121 23.8520846,6.07661626 C23.4753119,6.28476886 23.0715217,6.45911623 22.6509659,6.60466655 L22.6509659,5.49328814 L22.6509659,5.49328814 Z M8.72634959,11.2928893 C7.84156818,11.5770411 6.17616726,12.0537575 4.96372049,12.0537575 C3.75127373,12.0537575 2.08587281,11.5769785 1.20103476,11.2928893 C0.99135159,11.2255292 0.847881178,11.0109912 0.852185857,10.7710992 C1.01355467,1.65050931 4.04002705,0.941663611 4.96377714,0.941663611 C5.73980877,0.941663611 7.99936864,1.44285753 8.79811312,7.00982856 C8.22451467,6.90797464 7.68795912,6.79034494 7.21081946,6.67302825 L7.21081946,5.49328814 C7.21081946,4.67977141 6.61201598,4.01794003 5.87597255,4.01794003 L4.0582653,4.01794003 C3.32222187,4.01794003 2.72341839,4.67977141 2.72341839,5.49328814 L2.72341839,7.50225815 C2.72341839,8.31577488 3.32222187,8.97760627 4.0582653,8.97760627 L5.87591591,8.97760627 C6.56902584,8.97760627 7.14024538,8.39064722 7.204589,7.64292549 C7.72216998,7.76712843 8.30086608,7.88914029 8.91779451,7.99130723 C9.00201895,8.81822084 9.05718681,9.74054035 9.07542505,10.7712244 C9.07955981,11.0110538 8.9360894,11.2255292 8.72634959,11.2928893 Z M4.82257234,6.94440917 C4.89376946,6.97063953 5.47144603,7.180545 6.35871962,7.42500693 L6.35871962,7.50225815 C6.35871962,7.79648891 6.14212631,8.03588005 5.87591591,8.03588005 L4.0582653,8.03588005 C3.7920549,8.03588005 3.57546159,7.79648891 3.57546159,7.50225815 L3.57546159,5.49328814 C3.57546159,5.19905739 3.7920549,4.95966624 4.0582653,4.95966624 L5.87591591,4.95966624 C6.14212631,4.95966624 6.35871962,5.19905739 6.35871962,5.49328814 L6.35871962,6.44834864 C5.5882954,6.2311187 5.10775731,6.05683393 5.09195461,6.05101192 C4.86890428,5.96887772 4.62750243,6.10215799 4.55319008,6.34899881 C4.47882109,6.59571443 4.59940873,6.86227497 4.82257234,6.94440917 Z M9.79058729,8.17071262 C9.78868729,8.15281262 9.78708729,8.13481262 9.78518729,8.11701262 C9.78968729,8.11741262 9.79408729,8.11801262 9.79858729,8.11851262 C9.79598729,8.13611262 9.79318729,8.15321262 9.79058729,8.17071262 Z M14.4999434,1.94617992 C15.2401782,1.94617992 17.3305529,2.40242539 18.2148811,7.27707773 C17.6894838,7.28440219 17.1922367,7.27213214 16.7435873,7.24965792 L16.7435873,6.49774185 C16.7435873,5.68422512 16.1447838,5.02239373 15.4087403,5.02239373 L13.5910897,5.02239373 C12.8550463,5.02239373 12.2562428,5.68422512 12.2562428,6.49774185 L12.2562428,7.30775285 C11.7661891,7.31902126 11.2730202,7.30255686 10.7869314,7.26580931 C11.6725624,2.40167416 13.7602749,1.94617992 14.4999434,1.94617992 Z M13.1083427,8.20327857 C13.5858222,8.15976998 14.0576943,8.08834077 14.5147832,7.98053963 C14.7064547,8.01071393 15.2018892,8.08301958 15.8916007,8.14180312 L15.8916007,8.50664926 C15.8916007,8.80088001 15.6750074,9.04027116 15.408797,9.04027116 L13.5911464,9.04027116 C13.324936,9.04027116 13.1083427,8.80088001 13.1083427,8.50664926 L13.1083427,8.20327857 L13.1083427,8.20327857 Z M13.1083427,7.25804663 L13.1083427,6.49786705 C13.1083427,6.2036363 13.324936,5.96424515 13.5911464,5.96424515 L15.408797,5.96424515 C15.6750074,5.96424515 15.8916007,6.2036363 15.8916007,6.49786705 L15.8916007,7.19206382 C15.0918933,7.12363952 14.581619,7.03975245 14.5646835,7.03687275 C14.5125742,7.02810843 14.4592188,7.0299865 14.4075627,7.04263216 C13.9879698,7.14573813 13.5520644,7.21535187 13.1083427,7.25804663 Z M18.2626857,12.2974056 C17.3778477,12.5815574 15.7123901,13.0582738 14.5,13.0582738 C13.2876099,13.0582738 11.6221523,12.5814948 10.7373143,12.2974056 C10.5276877,12.2300455 10.3841607,12.0155075 10.3884654,11.7756155 C10.4127075,10.4029352 10.5023128,9.221943 10.6394961,8.2040924 C11.0616945,8.23745942 11.4906897,8.25636531 11.9205345,8.25636531 C12.0324562,8.25636531 12.1444345,8.25498806 12.2564127,8.25235876 L12.2564127,8.50671186 C12.2564127,9.32022859 12.8552162,9.98205997 13.5912597,9.98205997 L15.4089103,9.98205997 C16.1449537,9.98205997 16.7437572,9.32022859 16.7437572,8.50671186 L16.7437572,8.19939723 C17.2361331,8.22399993 17.7836203,8.23633258 18.3633359,8.22425034 C18.4989899,9.23759357 18.5875191,10.4119499 18.6116479,11.7756155 C18.6158393,12.0155075 18.4723689,12.2300455 18.2626857,12.2974056 Z" id="Shape"></path>
                        </g>
                    </g>
                    <g id="018-tooth-8" transform="translate(230.000000, 73.000000)" fill="#005691">
                        <path d="M18.5866012,6.07545571 C17.112613,6.07545571 15.9133988,4.43761299 15.9133988,2.42454429 C15.9133988,2.19009867 15.7283458,2 15.5,2 C15.2716542,2 15.0866012,2.19009867 15.0866012,2.42454429 C15.0866012,4.43766948 13.887387,6.07545571 12.4133988,6.07545571 C12.185053,6.07545571 12,6.26555438 12,6.5 C12,6.73444562 12.185053,6.92454429 12.4133988,6.92454429 C13.887387,6.92454429 15.0866012,8.56238701 15.0866012,10.5754557 C15.0866012,10.8099013 15.2716542,11 15.5,11 C15.7283458,11 15.9133988,10.8099013 15.9133988,10.5754557 C15.9133988,8.56233052 17.112613,6.92454429 18.5866012,6.92454429 C18.814947,6.92454429 19,6.73444562 19,6.5 C19,6.26555438 18.814947,6.07545571 18.5866012,6.07545571 Z M15.5,8.45521995 C15.1441415,7.60240283 14.5804558,6.91301973 13.8969587,6.49994351 C14.5804558,6.08692377 15.1441415,5.39748418 15.5,4.54466707 C15.8558585,5.39748418 16.4195442,6.08686728 17.1030413,6.49994351 C16.4195442,6.91301973 15.8558585,7.60245933 15.5,8.45521995 Z" id="Shape" fill-rule="nonzero"></path>
                        <path d="M12.6052549,10.0866012 C11.6780897,10.0866012 10.8947451,8.86246758 10.8947451,7.41339882 C10.8947451,7.18510806 10.7180422,7 10.5,7 C10.2819578,7 10.1052549,7.18510806 10.1052549,7.41339882 C10.1052549,8.86241257 9.32196285,10.0866012 8.39474514,10.0866012 C8.17675547,10.0866012 8,10.2717092 8,10.5 C8,10.7282908 8.17675547,10.9133988 8.39474514,10.9133988 C9.32191032,10.9133988 10.1052549,12.1375324 10.1052549,13.5866012 C10.1052549,13.8148919 10.2819578,14 10.5,14 C10.7180422,14 10.8947451,13.8148919 10.8947451,13.5866012 C10.8947451,12.1375874 11.6780371,10.9133988 12.6052549,10.9133988 C12.8232971,10.9133988 13,10.7282908 13,10.5 C13,10.2717092 12.8232971,10.0866012 12.6052549,10.0866012 Z M10.7954154,11.1638035 C10.6842669,11.3267976 10.5855675,11.5027741 10.5000525,11.6893124 C10.4145375,11.5027741 10.3158381,11.3267976 10.2046897,11.1638035 C10.0207379,10.8940904 9.81131025,10.6714656 9.58339286,10.5 C9.81131025,10.3285344 10.0207379,10.1059096 10.2046897,9.83619646 C10.3158381,9.67320236 10.4145375,9.49722593 10.5000525,9.31068762 C10.5855675,9.49722593 10.6842669,9.67320236 10.7954154,9.83619646 C10.9793671,10.1059096 11.1887948,10.3285344 11.4167122,10.5 C11.1887948,10.6714656 10.9793671,10.8940904 10.7954154,11.1638035 Z" id="Shape" fill-rule="nonzero"></path>
                        <path d="M19.6052549,14.0866012 C18.6780897,14.0866012 17.8947451,12.8624676 17.8947451,11.4133988 C17.8947451,11.1851081 17.7180422,11 17.5,11 C17.2819578,11 17.1052549,11.1851081 17.1052549,11.4133988 C17.1052549,12.8624126 16.3219629,14.0866012 15.3947451,14.0866012 C15.1767029,14.0866012 15,14.2717092 15,14.5 C15,14.7282908 15.1767029,14.9133988 15.3947451,14.9133988 C16.3219103,14.9133988 17.1052549,16.1375324 17.1052549,17.5866012 C17.1052549,17.8148919 17.2819578,18 17.5,18 C17.7180422,18 17.8947451,17.8148919 17.8947451,17.5866012 C17.8947451,16.1375874 18.6780371,14.9133988 19.6052549,14.9133988 C19.8232971,14.9133988 20,14.7282908 20,14.5 C20,14.2717092 19.8232971,14.0866012 19.6052549,14.0866012 Z M17.7954154,15.1637485 C17.6842669,15.3267426 17.5855675,15.5027191 17.5000525,15.6892574 C17.4145375,15.5027191 17.3158381,15.3267426 17.2046897,15.1637485 C17.0207379,14.8940354 16.8113102,14.6714656 16.5833929,14.499945 C16.8113102,14.3284794 17.0207379,14.1058546 17.2046897,13.8361415 C17.3158381,13.6731473 17.4145375,13.4971709 17.5000525,13.3106326 C17.5855675,13.4971709 17.6842669,13.6731473 17.7954154,13.8361415 C17.9793671,14.1058546 18.1887948,14.3284244 18.4167122,14.499945 C18.1887423,14.6714656 17.9793671,14.8940904 17.7954154,15.1637485 Z" id="Shape" fill-rule="nonzero"></path>
                        <path d="M18.892841,18.1268772 C18.8656071,17.8903508 18.6748684,17.723834 18.4677389,17.7549876 C18.2602564,17.7861413 18.1141008,18.0030673 18.1414356,18.2396512 C18.5728923,21.9763657 17.5550479,25.5878907 16.6543096,26.7582796 C16.4695725,26.9984272 16.2890718,27.1362045 16.159307,27.1362045 C16.157794,27.1362045 16.0026108,27.1285598 15.7669361,26.4651363 C15.5696411,25.9097161 15.3870727,25.0971919 15.1938123,24.2370176 C14.5076676,21.1828096 13.5679443,17 10.4997351,17 C7.4315258,17 6.49180255,21.1828096 5.80560738,24.2369601 C5.61234706,25.0971344 5.4297786,25.9096586 5.23253405,26.4650789 C4.99685935,27.1285023 4.84167615,27.136147 4.84016316,27.136147 C4.72103976,27.136147 4.55566904,27.0173378 4.3863141,26.8102407 C3.92948947,26.2514291 3.47574128,25.1159301 3.17253642,23.7728166 C2.82933797,22.252725 2.69321855,20.5643922 2.78924351,19.0185501 C2.80402046,18.7805867 2.64671907,18.5740069 2.4379253,18.5571656 C2.22898024,18.5400943 2.04787434,18.7196014 2.03309739,18.9575648 C1.80755977,22.5885753 2.77053277,26.1010639 3.83169935,27.3991713 C4.15770005,27.7979036 4.49696471,28 4.84011272,28 C5.74256578,28 6.07703928,26.5114645 6.53986546,24.4512421 C6.87257379,22.9704087 7.24961297,21.2920198 7.8784655,19.9824741 C8.56299637,18.5568782 9.42046294,17.863853 10.4996846,17.863853 C11.5789063,17.863853 12.4363729,18.5568782 13.1209038,19.9824741 C13.7496554,21.2919049 14.1267451,22.9704087 14.4594534,24.4512421 C14.92233,26.5114645 15.2568035,28 16.1592566,28 C16.5226283,28 16.8809568,27.7738199 17.2241048,27.3278397 C18.3663176,25.8437301 19.328988,21.903942 18.892841,18.1268772 Z" id="Path"></path>
                        <path d="M18.2826854,1.77574125 C17.1578021,0.630603307 15.585505,0 13.8554924,0 C12.45029,0 11.0698585,0.718804551 10.0115918,1.98734758 C8.95952979,0.735503111 7.5412446,0 6.14460381,0 C4.41459121,0 2.84229411,0.630603307 1.71736265,1.77574125 C0.609891008,2.90303089 0,4.44460906 0,6.11649074 C0,10.0501239 1.23709753,11.6482581 2.14043847,12.8152411 C2.88851693,13.7815676 3.26402316,14.2667018 2.73118621,15.6009441 C2.4981001,16.1847366 2.31061153,16.8224026 2.17391513,17.4963127 C2.13019345,17.7120252 2.24967052,17.9337602 2.43812107,17.9878526 C2.63176628,18.0434232 2.83344396,17.9026626 2.87832001,17.6813656 C3.0041461,17.0607814 3.17609881,16.4753463 3.38932017,15.9414304 C4.11575424,14.1222729 3.45175223,13.2644597 2.68284706,12.2711965 C1.80966398,11.1432499 0.722874761,9.73936641 0.722874761,6.11649074 C0.722874761,3.04915697 3.00303984,0.822828365 6.14455571,0.822828365 C7.37087915,0.822828365 8.62336825,1.49131824 9.54599675,2.62501356 C9.52805595,2.65430448 9.50992275,2.68386914 9.49222245,2.71283156 C8.87588622,3.72186255 8.46868296,4.38849095 6.91562533,4.38849095 C6.71601589,4.38849095 6.5541639,4.57272259 6.5541639,4.7999325 C6.5541639,5.02714241 6.71601589,5.21137406 6.91562533,5.21137406 C8.84649794,5.21137406 9.42079594,4.27116303 10.0857118,3.1825812 C10.1396304,3.09437996 10.1950882,3.00404349 10.2519889,2.91266678 C10.2654084,2.89908893 10.2782988,2.8847446 10.2899387,2.86875778 C11.2398392,1.56856961 12.5393207,0.822828365 13.8553962,0.822828365 C16.9969602,0.822828365 19.2770771,3.04910222 19.2770771,6.11649074 C19.2770771,9.04202362 18.5534328,10.501642 17.9229556,11.4464519 C17.8022279,11.6273986 17.8332035,11.8855419 17.9922176,12.0229629 C18.1510875,12.1603838 18.3779208,12.1251252 18.4986965,11.9441785 C19.1976663,10.8967135 20,9.28762932 20,6.11649074 C20,4.4446638 19.3901571,2.90308564 18.2826854,1.77574125 Z" id="Path"></path>
                    </g>
                    <g id="001-implant" transform="translate(114.000000, 4.000000)" fill="#005691" fill-rule="nonzero">
                        <path d="M21.4646715,3.76257273 C21.3704414,3.55022744 21.1331996,3.45988582 20.9348985,3.56081922 C20.7365973,3.66169597 20.6522082,3.91555876 20.7463854,4.12796069 C21.0506094,4.81325427 21.2048378,5.55337587 21.2048378,6.32782163 C21.2048378,10.0758377 20.0095283,11.5282138 19.048974,12.6952916 C18.6628476,13.164445 18.3205824,13.5804129 18.1175724,14.0744315 L3.88242763,14.0744315 C3.67936471,13.5804129 3.33715237,13.1645016 2.95102594,12.6952916 C1.99052456,11.5282705 0.795215145,10.0758944 0.795215145,6.32782163 C0.795215145,3.15453681 3.30339673,0.851306931 6.75906419,0.851306931 C8.10801997,0.851306931 9.48581089,1.54288761 10.5006493,2.7156861 C10.4809144,2.74598878 10.4609679,2.77657466 10.4414976,2.80653749 C9.76352774,3.85047881 9.31560416,4.54013371 7.60724077,4.54013371 C7.38767039,4.54013371 7.2096332,4.73072904 7.2096332,4.96578718 C7.2096332,5.20084531 7.38767039,5.39144064 7.60724077,5.39144064 C9.73120063,5.39144064 10.3629284,4.41875309 11.0943888,3.29256974 C11.1536464,3.20132187 11.2146499,3.10786502 11.2771878,3.01333201 C11.2920021,2.99928516 11.3061816,2.9843887 11.3190384,2.96790631 C12.363876,1.62280738 13.7933056,0.851306931 15.2410416,0.851306931 C16.9878695,0.851306931 18.5536973,1.45073349 19.6500678,2.53902434 C19.8111214,2.69892051 20.0625956,2.68866858 20.2119564,2.51631149 C20.3612642,2.34395441 20.3517407,2.07462876 20.19074,1.91478923 C18.9468606,0.679969375 17.1890277,0 15.2410416,0 C13.6952661,0 12.1767914,0.743633313 11.0127509,2.05599403 C9.85548276,0.76090867 8.29542197,0 6.75906419,0 C4.85605033,0 3.12652352,0.652385445 1.88909892,1.83707844 C0.670880109,3.00330663 0,4.5981336 0,6.32776498 C0,10.3972727 1.36075438,12.0507226 2.3543765,13.2579585 C2.77118986,13.7643813 3.10043962,14.1644333 3.22302867,14.6181804 C3.2722336,14.800223 3.4279434,14.9256251 3.60497532,14.9256251 L8.05780978,14.9256251 L8.05780978,18.6700163 L7.05006108,19.2094605 C6.43563437,19.5383154 6.1857474,20.3410247 6.4929343,20.998791 C6.70541494,21.453671 7.13259838,21.7361939 7.60782276,21.7361939 C7.76094004,21.7361939 7.91432185,21.7045885 8.05780978,21.6450593 L8.05780978,23.2098101 L7.05006108,23.7492544 C6.43563437,24.0781092 6.1857474,24.8808186 6.4929343,25.5385849 C6.70541494,25.9934649 7.13259838,26.2759877 7.60782276,26.2759877 C7.76094004,26.2759877 7.91432185,26.2443823 8.05780978,26.1848532 L8.05780978,26.7583384 C8.05780978,26.900676 8.12420998,27.0335546 8.23489461,27.1124549 L10.7794773,28.9285197 C10.8462478,28.976211 10.9231239,29 11,29 C11.0768761,29 11.1537522,28.9761543 11.2205227,28.9285197 L13.7651054,27.1124549 C13.8756842,27.033498 13.9421902,26.900676 13.9421902,26.7583384 L13.9421902,23.0422675 L14.9499389,22.5028232 C15.5643656,22.1739684 15.8142526,21.371259 15.5070657,20.7135494 C15.2173915,20.093449 14.5343424,19.8203851 13.9421902,20.0668846 L13.9421902,18.5025303 L14.9499389,17.963086 C15.5643656,17.6342312 15.8142526,16.8315218 15.5070657,16.1738122 C15.2173915,15.5537118 14.5343424,15.2806479 13.9421902,15.5271474 L13.9421902,14.9256251 L18.3950776,14.9256251 C18.5721095,14.9256251 18.7278193,14.8003363 18.7770242,14.6181804 C18.8996662,14.1644333 19.228863,13.764438 19.6456764,13.2579585 C20.6392456,12.0507226 22,10.3972727 22,6.32776498 C22,5.42593471 21.8199523,4.56284656 21.4646715,3.76257273 Z M8.85307783,14.9256251 L13.1470809,14.9256251 L13.1470809,15.9459474 L8.85307783,18.2443628 L8.85307783,14.9256251 Z M13.147028,26.5304736 L11.0000529,28.0627694 L8.85307783,26.5304736 L8.85307783,25.7662798 L13.1470809,23.4678643 L13.1470809,26.5304736 L13.147028,26.5304736 Z M14.1912836,20.8785432 C14.255779,20.8439925 14.3244014,20.8276234 14.3920185,20.8276234 C14.5574106,20.8276234 14.7169827,20.9253849 14.7958693,21.0942303 C14.9069243,21.3321204 14.8165565,21.6224597 14.5943407,21.7414048 L7.80882225,25.3734778 C7.58840533,25.4914033 7.31423335,25.3931887 7.20423653,25.1577907 C7.09312862,24.9199005 7.18354929,24.6295613 7.4057651,24.5106162 L14.1912836,20.8785432 Z M8.85307783,22.7841567 L8.85307783,21.2265425 L13.1470809,18.9281271 L13.1470809,20.4857412 L8.85307783,22.7841567 Z M14.1912836,16.3387493 C14.255779,16.3041986 14.3244014,16.2878295 14.3920185,16.2878295 C14.5574106,16.2878295 14.7169827,16.385591 14.7958693,16.5544364 C14.9069243,16.7923266 14.8165565,17.0826659 14.5943407,17.2016109 L7.80882225,20.8336839 C7.58840533,20.9516095 7.31423335,20.8533948 7.20423653,20.6179968 C7.09312862,20.3801067 7.18354929,20.0897674 7.4057651,19.9708223 L14.1912836,16.3387493 Z" id="Shape"></path>
                    </g>
                    <g id="007-tooth-4" transform="translate(2.000000, 80.000000)" fill="#005691" fill-rule="nonzero">
                        <path d="M13.0314493,13.0759844 C13.4171162,12.5592344 14,11.7783784 14,9.93679433 C14,9.13132196 13.7169154,8.38896226 13.2028568,7.8462417 C12.6859304,7.30052268 11.9664204,7 11.1768562,7 C10.571768,7 9.97790493,7.29583155 9.50510044,7.82302785 C9.0313537,7.29587991 8.43388548,7 7.82314384,7 C7.03357959,7 6.31406956,7.30052268 5.79714321,7.8462417 C5.28308457,8.38896226 5,9.13137032 5,9.93679433 C5,11.7782817 5.58288383,12.5592344 5.96855071,13.0759844 C6.28584304,13.5011365 6.39276789,13.644337 6.20136831,14.1414036 C5.79898674,15.1864623 5.78948231,16.3146556 5.85244917,17.0770373 C5.92832075,17.9957255 6.15110134,18.8697271 6.44844256,19.4148658 C6.66020293,19.8031175 6.89703533,20 7.15234402,20 C7.52965355,20 7.69262178,19.5248414 7.74616614,19.3686799 C7.83973562,19.0959171 7.91552527,18.7463068 8.00335932,18.3415636 C8.3233555,16.8662264 8.65682994,15.6450326 9.49993855,15.6450326 C10.3430472,15.6450326 10.6765216,16.8662264 10.9965178,18.3415636 C11.0843109,18.7463552 11.1601415,19.0959171 11.253711,19.3686799 C11.3072963,19.5247931 11.4702235,20 11.8475331,20 C12.1028418,20 12.3396332,19.8031175 12.5514345,19.4148658 C12.8487758,18.8697271 13.0715973,17.9957255 13.1474279,17.0770373 C13.2103538,16.3146556 13.2009313,15.186559 12.7984678,14.1414036 C12.6072321,13.644337 12.714157,13.5011849 13.0314493,13.0759844 Z M12.238116,14.4422165 C12.7507818,15.7736761 12.5892474,17.6325738 12.1769518,18.7055858 C12.0538038,19.0260821 11.9429871,19.1799222 11.8805118,19.241439 C11.7867785,19.0541322 11.6763714,18.5451684 11.5930847,18.161221 C11.448306,17.4936292 11.2841497,16.7369543 10.9953297,16.1138558 C10.6274836,15.3204256 10.1244452,14.9181488 9.50006145,14.9181488 C8.87567767,14.9181488 8.37259829,15.3204256 8.00479318,16.1138558 C7.71589125,16.7370027 7.55177594,17.4936776 7.4070382,18.161221 C7.32375152,18.5451201 7.21338541,19.0540838 7.11961108,19.241439 C7.05713583,19.1799706 6.94631908,19.0261305 6.82317115,18.7055858 C6.41087547,17.6325254 6.24938208,15.7736761 6.76200686,14.4422165 C7.11830013,13.5168542 6.76868454,13.0484664 6.43062175,12.5954577 C6.06760983,12.1090791 5.61578063,11.5038262 5.61578063,9.93684269 C5.61578063,8.65626011 6.54414235,7.7268838 7.8231848,7.7268838 C8.27882396,7.7268838 8.7447869,7.96782426 9.10747108,8.38127267 C8.87076158,8.77963208 8.71840391,8.97951303 8.15854375,8.97951303 C7.98852913,8.97951303 7.85067391,9.14225182 7.85067391,9.34295493 C7.85067391,9.54365804 7.98852913,9.70639683 8.15854375,9.70639683 C9.07711426,9.70639683 9.37396387,9.20236603 9.66106324,8.71492346 C9.68191563,8.67952233 9.70379221,8.64286379 9.72562783,8.60635033 C9.73119939,8.59962798 9.73681192,8.59285728 9.74197381,8.58560295 C10.1263707,8.03988393 10.6494012,7.7268838 11.1768971,7.7268838 C12.4559806,7.7268838 13.3843013,8.65635684 13.3843013,9.93684269 C13.3843013,11.5038262 12.9324721,12.1091274 12.5694602,12.5954577 C12.2314384,13.048418 11.8818228,13.5168059 12.238116,14.4422165 Z" id="Shape"></path>
                        <path d="M22.6623678,1.50295312 L15.7984086,1.50295312 L15.7984086,0.352265625 C15.7984086,0.157734375 15.6472468,0 15.4608214,0 C15.2743959,0 15.1232341,0.157734375 15.1232341,0.352265625 L15.1232341,1.50295312 L10.0371445,1.50295312 L10.0371445,0.352265625 C10.0371445,0.157734375 9.88598264,0 9.69955723,0 C9.51313181,0 9.36197,0.157734375 9.36197,0.352265625 L9.36197,1.50295312 L4.27592524,1.50295312 L4.27592524,0.352265625 C4.27592524,0.157734375 4.12476343,0 3.93833801,0 C3.75191259,0 3.60075078,0.157734375 3.60075078,0.352265625 L3.60075078,1.50295312 L0.337587231,1.50295312 C0.151161814,1.50295312 0,1.66064062 0,1.85517187 L0,23.6477344 C0,23.8422656 0.151161814,24 0.337587231,24 L22.6624128,24 C22.8488382,24 23,23.8422656 23,23.6477344 L23,1.85517187 C23,1.66064062 22.8487933,1.50295312 22.6623678,1.50295312 Z M15.4608214,3.33464062 C15.6717741,3.33464062 15.8434202,3.51370312 15.8434202,3.733875 C15.8434202,3.95404687 15.671819,4.13310937 15.4608214,4.13310937 C15.2498687,4.13310937 15.0782225,3.95404687 15.0782225,3.733875 C15.0782225,3.51370312 15.2498687,3.33464062 15.4608214,3.33464062 Z M9.69960215,3.33464062 C9.91055486,3.33464062 10.082201,3.51370312 10.082201,3.733875 C10.082201,3.95404687 9.91059978,4.13310937 9.69960215,4.13310937 C9.48860451,4.13310937 9.31700329,3.95404687 9.31700329,3.733875 C9.31700329,3.51370312 9.48864944,3.33464062 9.69960215,3.33464062 Z M3.93833801,3.33464062 C4.14929072,3.33464062 4.32093687,3.51370312 4.32093687,3.733875 C4.32093687,3.95404687 4.14933565,4.13310937 3.93833801,4.13310937 C3.72734038,4.13310937 3.55573915,3.95404687 3.55573915,3.733875 C3.55573915,3.51370312 3.7273853,3.33464062 3.93833801,3.33464062 Z M18.7240298,23.2955156 L15.1955582,23.2955156 L18.7240298,19.613625 L18.7240298,23.2955156 L18.7240298,23.2955156 Z M14.7181744,22.797375 L14.7181744,19.1154844 L18.246646,19.1154844 L14.7181744,22.797375 Z M18.7240298,18.4109531 L14.3805871,18.4109531 C14.1941617,18.4109531 14.0429999,18.5686875 14.0429999,18.7632188 L14.0429999,23.2955156 L0.675129541,23.2955156 L0.675129541,5.96479687 L18.7240298,5.96479687 L18.7240298,18.4109531 Z M18.7240748,5.26026562 L0.675129541,5.26026562 L0.675129541,2.2074375 L3.60075078,2.2074375 L3.60075078,2.68809375 C3.18261878,2.83546875 2.88060961,3.24839062 2.88060961,3.733875 C2.88060961,4.34245312 3.35511845,4.83759375 3.93833801,4.83759375 C4.52155758,4.83759375 4.99606641,4.34245312 4.99606641,3.733875 C4.99606641,3.2484375 4.69405724,2.83551562 4.27592524,2.68809375 L4.27592524,2.2074375 L9.36201492,2.2074375 L9.36201492,2.68809375 C8.94388292,2.83546875 8.64187375,3.24839062 8.64187375,3.733875 C8.64187375,4.34245312 9.11638259,4.83759375 9.69960215,4.83759375 C10.2828217,4.83759375 10.7573306,4.34245312 10.7573306,3.733875 C10.7573306,3.2484375 10.4553214,2.83551562 10.0371894,2.68809375 L10.0371894,2.2074375 L15.1232791,2.2074375 L15.1232791,2.68809375 C14.7051471,2.83546875 14.4031379,3.24839062 14.4031379,3.733875 C14.4031379,4.34245312 14.8776467,4.83759375 15.4608663,4.83759375 C16.0440859,4.83759375 16.5185947,4.34245312 16.5185947,3.733875 C16.5185947,3.2484375 16.2165855,2.83551562 15.7984535,2.68809375 L15.7984535,2.2074375 L18.7240748,2.2074375 L18.7240748,5.26026562 L18.7240748,5.26026562 Z M21.2445913,23.2955156 L20.4793936,23.2955156 L20.4793936,9.18201563 C20.4793936,8.98748438 20.3282318,8.82975 20.1418064,8.82975 C19.9553809,8.82975 19.8042191,8.98748438 19.8042191,9.18201563 L19.8042191,23.2955156 L19.3991145,23.2955156 L19.3991145,2.2074375 L19.8042191,2.2074375 L19.8042191,7.4911875 C19.8042191,7.68571875 19.9553809,7.84345312 20.1418064,7.84345312 C20.3282318,7.84345312 20.4793936,7.68571875 20.4793936,7.4911875 L20.4793936,2.2074375 L21.2445464,2.2074375 L21.2445464,23.2955156 L21.2445913,23.2955156 Z M22.3248255,23.2955156 L21.9197209,23.2955156 L21.9197209,2.2074375 L22.3248255,2.2074375 L22.3248255,23.2955156 Z" id="Shape"></path>
                    </g>
                    <g id="008-dentist" transform="translate(98.000000, 93.000000)" fill="#005691">
                        <path d="M9.94676825,47 L7.79363461,47 C3.49619682,47 0,50.6498584 0,55.1361731 L0,73.9004776 C0,74.5076656 0.471606763,75 1.05323175,75 C1.63485673,75 2.10646349,74.5076656 2.10646349,73.9004776 L2.10646349,55.1361731 C2.10646349,51.8623324 4.65776498,49.1990448 7.79363461,49.1990448 L9.94676825,49.1990448 C10.5283932,49.1990448 11,48.7067104 11,48.0995224 C10.9998598,47.4923344 10.5283932,47 9.94676825,47 Z" id="Path"></path>
                        <ellipse id="Oval" cx="29.5" cy="66" rx="1.5" ry="1"></ellipse>
                        <ellipse id="Oval" cx="29.5" cy="70" rx="1.5" ry="1"></ellipse>
                        <path d="M50.6508718,21.8194014 L50.6508718,12.8917454 C50.6508718,5.783206 44.8885994,0 37.8054643,0 L6.09553035,0 C5.20704327,0 4.68030991,1.05300257 5.21466222,1.76794441 L8.51777119,6.18802601 L8.51777119,21.8194014 C7.11676303,22.6178659 6.16893603,24.1280371 6.16893603,25.8573082 C6.16893603,28.4163648 8.24348889,30.4984013 10.7933472,30.4984013 C11.228067,30.4984013 11.6547284,30.4357593 12.0652727,30.3181218 C12.5461458,39.5982492 20.2201893,47 29.584468,47 C38.9490398,47 46.6232298,39.5979551 47.1036633,30.3173866 C47.5158193,30.4356122 47.9442389,30.4984013 48.3755888,30.4984013 C50.9254471,30.4984013 53,28.4163648 53,25.8573082 C53,24.1278901 52.05188,22.6177188 50.6508718,21.8194014 Z M12.0412437,27.9397859 C11.6654242,28.1672674 11.2370047,28.2882869 10.7933472,28.2882869 C9.4576862,28.2882869 8.37110635,27.1976404 8.37110635,25.8573082 C8.37110635,24.5169761 9.4576862,23.4263295 10.7933472,23.4263295 C11.2358325,23.4263295 11.6655707,23.5474961 12.0412437,23.7748306 L12.0412437,27.9397859 Z M44.925522,29.393197 C44.925522,37.8829476 38.0434101,44.7897386 29.584468,44.7897386 C21.1252329,44.7897386 14.2432675,37.8829476 14.2432675,29.393197 L14.2432675,22.2474548 L15.5645697,22.2474548 L15.5645697,28.2144694 C15.5645697,29.4737787 16.5853628,30.4981072 17.8399992,30.4981072 L23.7121603,30.4981072 C26.2620186,30.4981072 28.3365715,28.4160707 28.3365715,25.8570141 L28.3365715,25.7833437 L30.832218,25.7833437 L30.832218,25.8570141 C30.832218,28.4160707 32.9067709,30.4981072 35.4566292,30.4981072 L41.3287903,30.4981072 C42.5835732,30.4981072 43.6042198,29.4736317 43.6042198,28.2144694 L43.6042198,22.2474548 L44.925522,22.2474548 L44.925522,29.393197 Z M14.8120516,20.0374876 L17.3915066,13.9968025 L41.7771364,13.9968025 L44.3565914,20.0374876 L14.8120516,20.0374876 Z M41.402196,22.2474548 L41.402196,28.2144694 C41.402196,28.2552014 41.3692294,28.2881399 41.3287903,28.2881399 L35.4566292,28.2881399 C34.1209682,28.2881399 33.0343883,27.1974933 33.0343883,25.8571612 L33.0343883,22.2474548 L41.402196,22.2474548 Z M30.832218,22.2474548 L30.832218,23.5735234 L28.3365715,23.5735234 L28.3365715,22.2474548 L30.832218,22.2474548 Z M26.1345477,22.2474548 L26.1345477,25.8571612 C26.1345477,27.1976404 25.0479678,28.2881399 23.7123069,28.2881399 L17.8401457,28.2881399 C17.7995601,28.2881399 17.76674,28.2552014 17.76674,28.2144694 L17.76674,22.2474548 L26.1345477,22.2474548 Z M47.0383162,20.7066978 L43.5151367,12.4563396 C43.3418055,12.0501962 42.9435687,11.7866882 42.5032812,11.7866882 L16.6655083,11.7866882 C16.2250743,11.7866882 15.826984,12.0501962 15.6535063,12.4563396 L12.1301803,20.7069919 C12.0730382,20.8406575 12.0410972,20.9878514 12.0410972,21.1423977 L12.0410972,21.3888482 C11.6375857,21.2754751 11.2183968,21.2160682 10.7932007,21.2160682 C10.7685856,21.2160682 10.7442635,21.2175386 10.719795,21.2179798 L10.719795,5.81967362 C10.719795,5.58057542 10.6425798,5.34794729 10.499578,5.15663932 L8.29755415,2.20996727 L37.8054643,2.20996727 C43.6742556,2.20996727 48.448848,7.00178333 48.448848,12.8917454 L48.448848,21.2181268 C48.4243794,21.2176857 48.4000574,21.2162152 48.3754423,21.2162152 C47.9473158,21.2162152 47.5304712,21.2748869 47.1275458,21.388113 L47.1275458,21.1425447 C47.1275458,20.9877044 47.0956048,20.8405105 47.0383162,20.7066978 Z M48.3754423,28.2882869 C47.9682679,28.2882869 47.5656356,28.1852071 47.2117938,27.9902229 C47.1841019,27.9749301 47.1558238,27.9618429 47.1275458,27.9490498 L47.1275458,23.7473328 C47.1833693,23.7298342 47.2386067,23.7088065 47.2923789,23.6817499 C47.6296641,23.5122049 47.9939086,23.4261825 48.3752958,23.4261825 C49.7109568,23.4261825 50.7975366,24.516682 50.7975366,25.8571612 C50.7976832,27.1976404 49.7111033,28.2882869 48.3754423,28.2882869 Z" id="Shape" fill-rule="nonzero"></path>
                        <path d="M33.9557824,33 L25.0443566,33 C24.4676327,33 24,33.5001911 24,34.1170687 C24,37.360953 26.4674053,40 29.5,40 C32.5325947,40 35,37.3608044 35,34.1170687 C35.0001389,33.5001911 34.5325062,33 33.9557824,33 Z M29.500139,37.7660112 C27.9831468,37.7660112 26.6943427,36.7015629 26.2521414,35.2341374 L32.7479975,35.2341374 C32.3059352,36.7015629 31.0171311,37.7660112 29.500139,37.7660112 Z" id="Shape" fill-rule="nonzero"></path>
                        <ellipse id="Oval" cx="22.5" cy="26" rx="1.5" ry="1"></ellipse>
                        <ellipse id="Oval" cx="36.5" cy="26" rx="1.5" ry="1"></ellipse>
                        <path d="M66.4385762,56.6204128 L66.4385762,51.7507096 C66.4385762,51.4607736 66.3212887,51.1826212 66.1127775,50.9777894 L63.7387418,48.6456446 C63.5299344,48.4405218 63.2470819,48.3254494 62.9517899,48.3254494 L62.8775966,48.3254494 L62.8775966,41.0505719 C64.9191696,40.5587136 66.4387243,38.7466498 66.4387243,36.5915508 C66.4387243,34.0598114 64.3419136,32 61.764698,32 C59.1874823,32 57.0906717,34.0598114 57.0906717,36.5915508 C57.0906717,38.7466498 58.6102263,40.5585681 60.6517993,41.0505719 L60.6517993,48.3254494 L60.5776061,48.3254494 C60.2824621,48.3254494 59.9994615,48.4406673 59.7906542,48.6456446 L57.4333526,50.9613504 C55.1848975,48.7180923 52.1659285,47.3634088 48.9316361,47.1814168 C48.85922,47.1668691 48.7841382,47.1593043 48.7072793,47.1593043 L16.1128987,47.1593043 C15.4983239,47.1593043 15,47.648835 15,48.2525653 C15,48.8562956 15.4983239,49.3458263 16.1128987,49.3458263 L19.6515166,49.3458263 L28.8146044,61.7225885 C29.2516189,62.312935 30.1776276,62.312935 30.6146421,61.7225885 L39.7775818,49.3458263 L48.5391968,49.3458263 C48.5785888,49.3516454 48.6181289,49.3554278 48.6587057,49.3571735 C51.8156949,49.4930492 54.7388495,50.9760436 56.6786844,53.4261703 C56.7919735,53.5691744 56.9342883,53.6761001 57.0908197,53.7469475 L57.0908197,56.6679839 C55.7123952,57.1253641 54.716784,58.4068726 54.716784,59.9135798 L54.716784,71.5745943 C54.716784,73.4633245 56.2810619,75 58.2037184,75 L65.3259737,75 C67.9031893,75 70,72.9401886 70,70.4084492 L70,61.0797249 C70,58.9243349 68.4801492,57.1124166 66.4385762,56.6204128 Z M29.7145492,59.2208174 L22.4036269,49.3455354 L37.0256196,49.3455354 L29.7145492,59.2208174 Z M59.3163209,36.5914053 C59.3163209,35.2652354 60.4147067,34.1863766 61.7645499,34.1863766 C63.114393,34.1863766 64.2127788,35.2653808 64.2127788,36.5914053 C64.2127788,37.9175753 63.114393,38.9964341 61.7645499,38.9964341 C60.4147067,38.9964341 59.3163209,37.9175753 59.3163209,36.5914053 Z M59.3163209,52.2034346 L61.0384631,50.5116805 L62.4906367,50.5116805 L64.2129269,52.2034346 L64.2129269,56.4880286 L59.3163209,56.4880286 L59.3163209,52.2034346 Z M67.7740546,70.4081582 C67.7740546,71.7343282 66.6756688,72.813187 65.3258256,72.813187 L58.2035703,72.813187 C57.5081382,72.813187 56.9422852,72.2574642 56.9422852,71.5741578 L56.9422852,70.3351287 L60.5776061,70.3351287 C61.1923289,70.3351287 61.6905047,69.845598 61.6905047,69.2418677 C61.6905047,68.6381374 61.1923289,68.1486066 60.5776061,68.1486066 L56.9422852,68.1486066 L56.9422852,66.8330565 C56.9668682,66.8346567 56.9914512,66.8366934 57.0164784,66.8366934 L60.5776061,66.8366934 C61.1923289,66.8366934 61.6905047,66.3471627 61.6905047,65.7434324 C61.6905047,65.1397021 61.1923289,64.6501714 60.5776061,64.6501714 L57.0164784,64.6501714 C56.9914512,64.6501714 56.9668682,64.652208 56.9422852,64.6538083 L56.9422852,63.3382581 L60.5776061,63.3382581 C61.1923289,63.3382581 61.6905047,62.8487274 61.6905047,62.2449971 C61.6905047,61.6412668 61.1923289,61.1517361 60.5776061,61.1517361 L56.9422852,61.1517361 L56.9422852,59.9127069 C56.9422852,59.2295461 57.5079901,58.6736778 58.2035703,58.6736778 L65.3258256,58.6736778 C66.6758169,58.6736778 67.7740546,59.752682 67.7740546,61.0787065 L67.7740546,70.4081582 Z" id="Shape" fill-rule="nonzero"></path>
                    </g>
                </g>
            </g>
        </g>
    </g>
</svg>