<?xml version="1.0" encoding="UTF-8"?>
<svg width="24px" height="24px" viewBox="0 0 24 24" version="1.1" xmlns="http://www.w3.org/2000/svg" xmlns:xlink="http://www.w3.org/1999/xlink">
    <!-- Generator: Sketch 58 (84663) - https://sketch.com -->
    <title>instagram-logo</title>
    <desc>Created with Sketch.</desc>
    <defs>
        <linearGradient x1="17.9909794%" y1="6.90383375%" x2="167.16618%" y2="272.379144%" id="linearGradient-1">
            <stop stop-color="#BC68AA" offset="0%"></stop>
            <stop stop-color="#005691" offset="100%"></stop>
        </linearGradient>
    </defs>
    <g id="-" stroke="none" stroke-width="1" fill="none" fill-rule="evenodd">
        <g id="Main-Page-Copy-2" transform="translate(-1467.000000, -7105.000000)" fill="url(#linearGradient-1)">
            <g id="Footer" transform="translate(-78.000000, 6595.000000)">
                <g id="instagram-logo" transform="translate(1545.000000, 510.000000)">
                    <path d="M17.3767257,0 L6.62299038,0 C2.9710757,0 0,2.97121766 0,6.62313234 L0,17.3768677 C0,21.0289243 2.9710757,24 6.62299038,24 L17.3767257,24 C21.0289243,24 24,21.0287823 24,17.3768677 L24,6.62313234 C24,2.97121766 21.0289243,0 17.3767257,0 Z M21.8707456,17.3768677 C21.8707456,19.8547752 19.8547752,21.8706037 17.3768677,21.8706037 L6.62299038,21.8706037 C4.14522483,21.8706037 2.12939632,19.8547752 2.12939632,17.3768677 L2.12939632,6.62313234 C2.12939632,4.14536679 4.14522483,2.12939632 6.62299038,2.12939632 L17.3767257,2.12939632 C19.8546332,2.12939632 21.8707456,4.14536679 21.8707456,6.62313234 L21.8707456,17.3768677 L21.8707456,17.3768677 Z" id="Shape" fill-rule="nonzero"></path>
                    <path d="M12.1935484,6 C8.77837437,6 6,8.77843815 6,12.1936906 C6,15.6088008 8.77837437,18.3870968 12.1935484,18.3870968 C15.6087224,18.3870968 18.3870968,15.6088008 18.3870968,12.1936906 C18.3870968,8.77843815 15.6087224,6 12.1935484,6 Z M12.1935484,16.2542879 C9.95444195,16.2542879 8.13261772,14.4327062 8.13261772,12.1935484 C8.13261772,9.95424838 9.95429978,8.1325245 12.1935484,8.1325245 C14.432797,8.1325245 16.2544791,9.95424838 16.2544791,12.1935484 C16.2544791,14.4327062 14.4326548,16.2542879 12.1935484,16.2542879 Z" id="Shape" fill-rule="nonzero"></path>
                    <path d="M18.5483871,4 C18.1415836,4 17.7419589,4.16469208 17.4546628,4.45325513 C17.1659589,4.74041056 17,5.14017595 17,5.5483871 C17,5.95533138 17.1660997,6.35495601 17.4546628,6.64351906 C17.7418182,6.93067449 18.1415836,7.09677419 18.5483871,7.09677419 C18.9565982,7.09677419 19.354956,6.93067449 19.6435191,6.64351906 C19.9320821,6.35495601 20.0967742,5.95519062 20.0967742,5.5483871 C20.0967742,5.14017595 19.9320821,4.74041056 19.6435191,4.45325513 C19.3563636,4.16469208 18.9565982,4 18.5483871,4 Z" id="Path"></path>
                </g>
            </g>
        </g>
    </g>
</svg>