<?xml version="1.0" encoding="UTF-8"?>
<svg width="11px" height="20px" viewBox="0 0 11 20" version="1.1" xmlns="http://www.w3.org/2000/svg" xmlns:xlink="http://www.w3.org/1999/xlink">
    <!-- Generator: Sketch 58 (84663) - https://sketch.com -->
    <title>Path Copy</title>
    <desc>Created with Sketch.</desc>
    <g id="Site" stroke="none" stroke-width="1" fill="none" fill-rule="evenodd">
        <g id="Home_Page_Hasdeu-Copy" transform="translate(-1634.000000, -768.000000)" fill="#FFFFFF">
            <g id="Carti" transform="translate(265.000000, 737.000000)">
                <g id="Group-2">
                    <path d="M1372.67527,40.8010168 L1379.63983,33.4707241 C1379.8316,33.2693704 1379.9371,33.0001555 1379.9371,32.7130991 C1379.9371,32.4258834 1379.8316,32.1568277 1379.63983,31.9551555 L1379.02956,31.3131814 C1378.83809,31.1111905 1378.58215,31 1378.3094,31 C1378.03665,31 1377.78101,31.1111905 1377.58939,31.3131814 L1369.29697,40.0405244 C1369.10459,40.2428338 1368.99925,40.5131639 1369,40.8005389 C1368.99925,41.0891883 1369.10444,41.3591997 1369.29697,41.5616684 L1377.58167,50.2805686 C1377.77329,50.4825595 1378.02893,50.59375 1378.30183,50.59375 C1378.57458,50.59375 1378.83022,50.4825595 1379.02199,50.2805686 L1379.63211,49.6385945 C1380.02912,49.2207538 1380.02912,48.540548 1379.63211,48.1228666 L1372.67527,40.8010168 Z" id="Path-Copy" transform="translate(1374.468549, 40.796875) scale(-1, 1) translate(-1374.468549, -40.796875) "></path>
                </g>
            </g>
        </g>
    </g>
</svg>